<svg width="312" height="291" viewBox="0 0 312 291" fill="none" xmlns="http://www.w3.org/2000/svg">
<rect x="0.5" y="0.5" width="311" height="290" rx="49.5" fill="white" stroke="#CFCFCF"/>
<circle cx="156" cy="146" r="45" fill="#DBDBDB"/>
<path d="M176.75 149.035H159.042V166.743C159.042 167.682 158.669 168.583 158.004 169.247C157.34 169.911 156.439 170.285 155.5 170.285C154.561 170.285 153.66 169.911 152.996 169.247C152.332 168.583 151.958 167.682 151.958 166.743V149.035H134.25C133.311 149.035 132.41 148.661 131.746 147.997C131.082 147.333 130.708 146.432 130.708 145.493C130.708 144.554 131.082 143.653 131.746 142.989C132.41 142.324 133.311 141.951 134.25 141.951H151.958V124.243C151.958 123.304 152.332 122.403 152.996 121.739C153.66 121.074 154.561 120.701 155.5 120.701C156.439 120.701 157.34 121.074 158.004 121.739C158.669 122.403 159.042 123.304 159.042 124.243V141.951H176.75C177.689 141.951 178.59 142.324 179.255 142.989C179.919 143.653 180.292 144.554 180.292 145.493C180.292 146.432 179.919 147.333 179.255 147.997C178.59 148.661 177.689 149.035 176.75 149.035Z" fill="white"/>
</svg>
