<svg width="15" height="25" viewBox="0 0 15 25" fill="none" xmlns="http://www.w3.org/2000/svg">
<path d="M12.6385 0.369274L1.49795e-07 12.4384L12.6385 24.5075C12.7527 24.6499 12.8977 24.7674 13.0638 24.8519C13.2298 24.9364 13.4131 24.9861 13.6011 24.9975C13.7891 25.0089 13.9775 24.9817 14.1536 24.918C14.3296 24.8542 14.4892 24.7552 14.6214 24.6277C14.7537 24.5003 14.8556 24.3473 14.9202 24.1792C14.9848 24.011 15.0107 23.8317 14.996 23.6533C14.9813 23.4748 14.9265 23.3015 14.8351 23.1449C14.7438 22.9884 14.6181 22.8523 14.4666 22.7459L3.69556 12.4384L14.4666 2.13092C14.7125 1.89565 14.85 1.57722 14.8487 1.24568C14.8475 0.914135 14.7077 0.596636 14.46 0.363028C14.2124 0.129418 13.8772 -0.00116332 13.5282 7.79072e-06C13.1792 0.00118081 12.845 0.13401 12.5991 0.369274L12.6385 0.369274Z" fill="#629576"/>
</svg>
