<svg width="30" height="30" viewBox="0 0 30 30" fill="none" xmlns="http://www.w3.org/2000/svg">
<path d="M18.5 19.6875V17.875H18.5083H18.5254H18.5425H18.5596H18.5767H18.5938H18.6108H18.6279H18.645H18.6621H18.6792H18.6963H18.7134H18.7305H18.7476H18.7646H18.7817H18.7988H18.8159H18.833H18.8501H18.8672H18.8843H18.9014H18.9185H18.9355H18.9526H18.9697H18.9868H19.0039H19.021H19.0381H19.0552H19.0723H19.0894H19.1064H19.1235H19.1406H19.1577H19.1748H19.1919H19.209H19.2261H19.2432H19.2603H19.2773H19.2944H19.3115H19.3286H19.3457H19.3628H19.3799H19.397H19.4141H19.4312H19.4482H19.4653H19.4824H19.4995H19.5166H19.5337H19.5508H19.5679H19.585H19.6021H19.6191H19.6362H19.6533H19.6704H19.6875H19.7046H19.7217H19.7388H19.7559H19.7729H19.79H19.8071H19.8242H19.8413H19.8584H19.8755H19.8926H19.9097H19.9268H19.9438H19.9609H19.978H19.9951H20.0122H20.0293H20.0464H20.0635H20.0806H20.0977H20.1147H20.1318H20.1489H20.166H20.1831H20.2002H20.2173H20.2344H20.2515H20.2686H20.2856H20.3027H20.3198H20.3369H20.354H20.3711H20.3882H20.4053H20.4224H20.4395H20.4565H20.4736H20.4907H20.5078H20.5249H20.542H20.5591H20.5762H20.5933H20.6104H20.6274H20.6445H20.6616H20.6787H20.6958H20.7129H20.73H20.7471H20.7642H20.7812H20.7983H20.8154H20.8325H20.8496H20.8667H20.8838H20.9009H20.918H20.9351H20.9521H20.9692H20.9863H21.0034H21.0205H21.0376H21.0547H21.0718H21.0889H21.106H21.123H21.1401H21.1572H21.1743H21.1914H21.2085H21.2256H21.2427H21.2598H21.2769H21.2939H21.311H21.3281H21.3452H21.3623H21.3794H21.3965H21.4136H21.4307H21.4478H21.4648H21.4819H21.499H21.5161H21.5332H21.5503H21.5674H21.5845H21.6016H21.6187H21.6357H21.6528H21.6699H21.687H21.7041H21.7212H21.7383H21.7554H21.7725H21.7896H21.8066H21.8237H21.8408H21.8579H21.875H21.8921H21.9092H21.9263H21.9434H21.9604H21.9775H21.9946H22.0117H22.0288H22.0459H22.063H22.0801H22.0972H22.1143H22.1313H22.1484H22.1655H22.1826H22.1997H22.2168H22.2339H22.251H22.2681H22.2852H22.3022H22.3193H22.3364H22.3535H22.3706H22.3877H22.4048H22.4219H22.439H22.4561H22.4731H22.4902H22.5073H22.5244H22.5415H22.5586H22.5757H22.5928H22.6099H22.627H22.644H22.6611H22.6782H22.6953H22.7124H22.7295H22.7466H22.7637H22.7808H22.7979H22.8149H22.832H22.8491H22.8662H22.8833H22.9004H22.9175H22.9346H22.9517H22.9688H22.9858H23.0029H23.02H23.0371H23.0542H23.0713H23.0884H23.1055H23.1226H23.1396H23.1567H23.1738H23.1909H23.208H23.2251H23.2422H23.2593H23.2764H23.2935H23.3105H23.3276H23.3447H23.3618H23.3789H23.396H23.4131H23.4302H23.4473H23.4644H23.4814H23.4985H23.5156H23.5327H23.5498H23.5669H23.584H23.6011H23.6182H23.6353H23.6523H23.6694H23.6865H23.7036H23.7207H23.7378H23.7549H23.772H23.7891H23.8062H23.8232H23.8403H23.8574H23.8745H23.8916H23.9087H23.9258H23.9429H23.96H23.9771H23.9941H24.0112H24.0283H24.0454H24.0625H24.0796H24.0967H24.1138H24.1309H24.1479H24.165H24.1821H24.1992H24.2163H24.2334H24.2505H24.2676H24.2847H24.3018H24.3188H24.3359H24.353H24.3701H24.3872H24.4043H24.4214H24.4385H24.4556H24.4727H24.4897H24.5068H24.5239H24.541H24.5581H24.5752H24.5923H24.6094H24.6265H24.6436H24.6606H24.6777H24.6948H24.7119H24.729H24.7461H24.7632H24.7803H24.7974H24.8145H24.8315H24.8486H24.8657H24.8828H24.8999H24.917H24.9341H24.9512H24.9683H24.9854H25.0024H25.0195H25.0366H25.0537H25.0708H25.0879H25.105H25.1221H25.1392H25.1562H25.1733H25.1904H25.2075H25.2246H25.2417H25.25V22.6687C25.25 22.9951 25.1515 23.2155 24.9654 23.4016C24.778 23.589 24.5569 23.6875 24.2313 23.6875H5.76875C5.44244 23.6875 5.22195 23.589 5.03586 23.4029C4.84848 23.2155 4.75 22.9944 4.75 22.6687V17.875H8.125H11.5V19.6875V20.6875H12.5H17.5H18.5V19.6875ZM25.25 10.4562V15.875H25.2417H25.2246H25.2075H25.1904H25.1733H25.1562H25.1392H25.1221H25.105H25.0879H25.0708H25.0537H25.0366H25.0195H25.0024H24.9854H24.9683H24.9512H24.9341H24.917H24.8999H24.8828H24.8657H24.8486H24.8315H24.8145H24.7974H24.7803H24.7632H24.7461H24.729H24.7119H24.6948H24.6777H24.6606H24.6436H24.6265H24.6094H24.5923H24.5752H24.5581H24.541H24.5239H24.5068H24.4897H24.4727H24.4556H24.4385H24.4214H24.4043H24.3872H24.3701H24.353H24.3359H24.3188H24.3018H24.2847H24.2676H24.2505H24.2334H24.2163H24.1992H24.1821H24.165H24.1479H24.1309H24.1138H24.0967H24.0796H24.0625H24.0454H24.0283H24.0112H23.9941H23.9771H23.96H23.9429H23.9258H23.9087H23.8916H23.8745H23.8574H23.8403H23.8232H23.8062H23.7891H23.772H23.7549H23.7378H23.7207H23.7036H23.6865H23.6694H23.6523H23.6353H23.6182H23.6011H23.584H23.5669H23.5498H23.5327H23.5156H23.4985H23.4814H23.4644H23.4473H23.4302H23.4131H23.396H23.3789H23.3618H23.3447H23.3276H23.3105H23.2935H23.2764H23.2593H23.2422H23.2251H23.208H23.1909H23.1738H23.1567H23.1396H23.1226H23.1055H23.0884H23.0713H23.0542H23.0371H23.02H23.0029H22.9858H22.9688H22.9517H22.9346H22.9175H22.9004H22.8833H22.8662H22.8491H22.832H22.8149H22.7979H22.7808H22.7637H22.7466H22.7295H22.7124H22.6953H22.6782H22.6611H22.644H22.627H22.6099H22.5928H22.5757H22.5586H22.5415H22.5244H22.5073H22.4902H22.4731H22.4561H22.439H22.4219H22.4048H22.3877H22.3706H22.3535H22.3364H22.3193H22.3022H22.2852H22.2681H22.251H22.2339H22.2168H22.1997H22.1826H22.1655H22.1484H22.1313H22.1143H22.0972H22.0801H22.063H22.0459H22.0288H22.0117H21.9946H21.9775H21.9604H21.9434H21.9263H21.9092H21.8921H21.875H21.8579H21.8408H21.8237H21.8066H21.7896H21.7725H21.7554H21.7383H21.7212H21.7041H21.687H21.6699H21.6528H21.6357H21.6187H21.6016H21.5845H21.5674H21.5503H21.5332H21.5161H21.499H21.4819H21.4648H21.4478H21.4307H21.4136H21.3965H21.3794H21.3623H21.3452H21.3281H21.311H21.2939H21.2769H21.2598H21.2427H21.2256H21.2085H21.1914H21.1743H21.1572H21.1401H21.123H21.106H21.0889H21.0718H21.0547H21.0376H21.0205H21.0034H20.9863H20.9692H20.9521H20.9351H20.918H20.9009H20.8838H20.8667H20.8496H20.8325H20.8154H20.7983H20.7812H20.7642H20.7471H20.73H20.7129H20.6958H20.6787H20.6616H20.6445H20.6274H20.6104H20.5933H20.5762H20.5591H20.542H20.5249H20.5078H20.4907H20.4736H20.4565H20.4395H20.4224H20.4053H20.3882H20.3711H20.354H20.3369H20.3198H20.3027H20.2856H20.2686H20.2515H20.2344H20.2173H20.2002H20.1831H20.166H20.1489H20.1318H20.1147H20.0977H20.0806H20.0635H20.0464H20.0293H20.0122H19.9951H19.978H19.9609H19.9438H19.9268H19.9097H19.8926H19.8755H19.8584H19.8413H19.8242H19.8071H19.79H19.7729H19.7559H19.7388H19.7217H19.7046H19.6875H19.6704H19.6533H19.6362H19.6191H19.6021H19.585H19.5679H19.5508H19.5337H19.5166H19.4995H19.4824H19.4653H19.4482H19.4312H19.4141H19.397H19.3799H19.3628H19.3457H19.3286H19.3115H19.2944H19.2773H19.2603H19.2432H19.2261H19.209H19.1919H19.1748H19.1577H19.1406H19.1235H19.1064H19.0894H19.0723H19.0552H19.0381H19.021H19.0039H18.9868H18.9697H18.9526H18.9355H18.9185H18.9014H18.8843H18.8672H18.8501H18.833H18.8159H18.7988H18.7817H18.7646H18.7476H18.7305H18.7134H18.6963H18.6792H18.6621H18.645H18.6279H18.6108H18.5938H18.5767H18.5596H18.5425H18.5254H18.5083H18.5V14.6875V13.6875H17.5H12.5H11.5V14.6875V15.875H8.125H4.75V10.4562C4.75 10.1306 4.84844 9.91036 5.03509 9.72412L5.03662 9.72259C5.22287 9.53593 5.44312 9.43749 5.76875 9.43749H11.25H11.5H12.25H12.5H17.5H17.75H18.5H18.75H24.2313C24.5569 9.43749 24.7771 9.53593 24.9634 9.72259L24.9649 9.72411C25.1516 9.91036 25.25 10.1306 25.25 10.4562ZM14.75 17.4375V16.9375H15.25V17.4375H14.75Z" stroke="white" stroke-width="2"/>
</svg>
