<svg width="41" height="41" viewBox="0 0 41 41" fill="none" xmlns="http://www.w3.org/2000/svg">
<circle cx="20.5" cy="20.5" r="20.5" fill="#F4F4F4"/>
<path d="M11.125 29.875V25.4479L24.875 11.724C25.0833 11.533 25.3135 11.3854 25.5656 11.2813C25.8177 11.1771 26.0823 11.125 26.3594 11.125C26.6372 11.125 26.9062 11.1771 27.1667 11.2813C27.4271 11.3854 27.6528 11.5417 27.8437 11.75L29.276 13.2083C29.4844 13.3993 29.6365 13.625 29.7323 13.8854C29.8281 14.1458 29.8757 14.4062 29.875 14.6667C29.875 14.9444 29.8274 15.2094 29.7323 15.4615C29.6372 15.7135 29.4851 15.9434 29.276 16.151L15.5521 29.875H11.125ZM26.3333 16.125L27.7917 14.6667L26.3333 13.2083L24.875 14.6667L26.3333 16.125Z" fill="#9D9D9D"/>
</svg>
