<svg width="67" height="40" viewBox="0 0 67 40" fill="none" xmlns="http://www.w3.org/2000/svg">
<path d="M1.56 10.2H8.232C10.536 10.2 12.456 11.008 13.992 12.624C15.544 14.224 16.32 16.216 16.32 18.6C16.32 20.984 15.544 22.976 13.992 24.576C12.456 26.192 10.536 27 8.232 27H1.56V10.2ZM4.872 23.832H8.232C9.688 23.832 10.872 23.352 11.784 22.392C12.696 21.4 13.152 20.136 13.152 18.6C13.152 17.048 12.696 15.792 11.784 14.832C10.872 13.856 9.688 13.368 8.232 13.368H4.872V23.832Z" fill="white"/>
<path d="M18.9094 27V10.2H21.1414V27H18.9094Z" fill="#629576"/>
<path d="M26.872 20.064V23.832H33.952V27H23.56V10.2H33.832V13.368H26.872V16.944H33.232V20.064H26.872ZM42.0226 27.336C40.3746 27.336 38.9826 26.968 37.8466 26.232C36.7106 25.496 35.9026 24.48 35.4226 23.184L38.2546 21.528C38.9106 23.24 40.1986 24.096 42.1186 24.096C43.0146 24.096 43.6866 23.936 44.1346 23.616C44.5826 23.296 44.8066 22.864 44.8066 22.32C44.8066 21.728 44.5426 21.272 44.0146 20.952C43.4866 20.616 42.5426 20.256 41.1826 19.872C39.7106 19.424 38.5506 18.904 37.7026 18.312C36.6466 17.528 36.1186 16.376 36.1186 14.856C36.1186 13.32 36.6546 12.112 37.7266 11.232C38.7986 10.32 40.1026 9.864 41.6386 9.864C42.9826 9.864 44.1746 10.192 45.2146 10.848C46.2546 11.504 47.0626 12.432 47.6386 13.632L44.8546 15.24C44.1826 13.8 43.1106 13.08 41.6386 13.08C40.9666 13.08 40.4306 13.24 40.0306 13.56C39.6306 13.864 39.4306 14.264 39.4306 14.76C39.4306 15.288 39.6466 15.72 40.0786 16.056C40.5586 16.392 41.4066 16.744 42.6226 17.112L43.7746 17.496C43.9826 17.56 44.3426 17.696 44.8546 17.904C45.3346 18.08 45.6866 18.248 45.9106 18.408C46.6946 18.888 47.2226 19.384 47.4946 19.896C47.9106 20.568 48.1186 21.36 48.1186 22.272C48.1186 23.824 47.5506 25.056 46.4146 25.968C45.2786 26.88 43.8146 27.336 42.0226 27.336ZM58.1296 27.336C55.6176 27.336 53.5296 26.496 51.8656 24.816C50.2176 23.152 49.3936 21.08 49.3936 18.6C49.3936 16.104 50.2176 14.032 51.8656 12.384C53.5296 10.704 55.6176 9.864 58.1296 9.864C59.6496 9.864 61.0496 10.224 62.3296 10.944C63.6256 11.648 64.6336 12.608 65.3536 13.824L62.4976 15.48C62.0816 14.728 61.4896 14.144 60.7216 13.728C59.9536 13.296 59.0896 13.08 58.1296 13.08C56.4976 13.08 55.1776 13.592 54.1696 14.616C53.1776 15.656 52.6816 16.984 52.6816 18.6C52.6816 20.2 53.1776 21.52 54.1696 22.56C55.1776 23.584 56.4976 24.096 58.1296 24.096C59.0896 24.096 59.9536 23.888 60.7216 23.472C61.5056 23.04 62.0976 22.456 62.4976 21.72L65.3536 23.376C64.6336 24.592 63.6256 25.56 62.3296 26.28C61.0496 26.984 59.6496 27.336 58.1296 27.336Z" fill="white"/>
</svg>
