<svg width="125" height="53" viewBox="0 0 125 53" fill="none" xmlns="http://www.w3.org/2000/svg">
<path d="M22.5769 47.2738V50.1954H27.3356V51.8958H20.8115V41.075H27.2589V42.7754H22.5769V45.5888H26.8751V47.2738H22.5769ZM36.4619 45.2642V41.075H38.1197V51.8958H36.4619V50.7828C35.8376 51.6587 34.9421 52.0968 33.7754 52.0968C32.7214 52.0968 31.8207 51.7051 31.0737 50.9219C30.3267 50.1388 29.9531 49.1751 29.9531 48.0312C29.9531 46.8873 30.3267 45.9237 31.0737 45.1405C31.8207 44.3573 32.7214 43.9657 33.7754 43.9657C34.9421 43.9657 35.8376 44.3985 36.4619 45.2642ZM32.3018 49.8089C32.7623 50.2727 33.3405 50.5046 34.0364 50.5046C34.7324 50.5046 35.3105 50.2727 35.7711 49.8089C36.2316 49.3349 36.4619 48.7423 36.4619 48.0312C36.4619 47.3201 36.2316 46.7327 35.7711 46.269C35.3105 45.795 34.7324 45.5579 34.0364 45.5579C33.3405 45.5579 32.7623 45.795 32.3018 46.269C31.8412 46.7327 31.611 47.3201 31.611 48.0312C31.611 48.732 31.8412 49.3245 32.3018 49.8089ZM46.914 48.3095V44.1666H48.5719V51.8958H46.914V50.9065C46.4023 51.7 45.6092 52.0968 44.5347 52.0968C43.6443 52.0968 42.9279 51.8133 42.3855 51.2466C41.8533 50.6694 41.5873 49.8914 41.5873 48.9124V44.1666H43.2452V48.7423C43.2452 49.3195 43.3987 49.7626 43.7057 50.0717C44.0127 50.3809 44.4322 50.5355 44.9645 50.5355C45.5682 50.5355 46.0441 50.35 46.3921 49.979C46.74 49.5977 46.914 49.0412 46.914 48.3095ZM55.8219 52.0968C54.6655 52.0968 53.6984 51.7051 52.9206 50.9219C52.1531 50.1284 51.7693 49.1649 51.7693 48.0312C51.7693 46.877 52.1531 45.9134 52.9206 45.1405C53.6984 44.3573 54.6655 43.9657 55.8219 43.9657C56.569 43.9657 57.2496 44.146 57.8636 44.5067C58.4776 44.8675 58.9382 45.3517 59.2452 45.9598L57.8176 46.7946C57.6435 46.4236 57.3775 46.135 57.0193 45.9289C56.6714 45.7125 56.2671 45.6043 55.8066 45.6043C55.1311 45.6043 54.5632 45.8361 54.1026 46.2999C53.6523 46.7739 53.4272 47.3511 53.4272 48.0312C53.4272 48.7114 53.6523 49.2885 54.1026 49.7626C54.5632 50.2263 55.1311 50.4582 55.8066 50.4582C56.2569 50.4582 56.6611 50.3552 57.0193 50.149C57.3877 49.9326 57.664 49.6389 57.8483 49.2679L59.2759 50.0872C58.9484 50.7055 58.4725 51.195 57.8483 51.5557C57.2342 51.9165 56.5588 52.0968 55.8219 52.0968ZM68.1218 45.2642V44.1666H69.7797V51.8958H68.1218V50.7828C67.4976 51.6587 66.6021 52.0968 65.4354 52.0968C64.3814 52.0968 63.4807 51.7051 62.7337 50.9219C61.9866 50.1388 61.6131 49.1751 61.6131 48.0312C61.6131 46.8873 61.9866 45.9237 62.7337 45.1405C63.4807 44.3573 64.3814 43.9657 65.4354 43.9657C66.6021 43.9657 67.4976 44.3985 68.1218 45.2642ZM63.9617 49.8089C64.4223 50.2727 65.0005 50.5046 65.6964 50.5046C66.3923 50.5046 66.9705 50.2727 67.431 49.8089C67.8916 49.3349 68.1218 48.7423 68.1218 48.0312C68.1218 47.3201 67.8916 46.7327 67.431 46.269C66.9705 45.795 66.3923 45.5579 65.6964 45.5579C65.0005 45.5579 64.4223 45.795 63.9617 46.269C63.5012 46.7327 63.271 47.3201 63.271 48.0312C63.271 48.732 63.5012 49.3245 63.9617 49.8089ZM77.6837 44.1666V45.7743H75.7802V49.4843C75.7802 49.8038 75.8518 50.0356 75.9951 50.1799C76.1383 50.3139 76.3481 50.3912 76.6245 50.4118C76.911 50.4221 77.264 50.417 77.6837 50.3964V51.8958C76.4146 52.0504 75.5038 51.9422 74.9512 51.5712C74.3986 51.1899 74.1223 50.4943 74.1223 49.4843V45.7743H72.71V44.1666H74.1223V42.4971L75.7802 42.0025V44.1666H77.6837ZM82.4417 42.6981C82.2371 42.9043 81.9915 43.0073 81.7048 43.0073C81.4183 43.0073 81.1675 42.9043 80.9526 42.6981C80.7479 42.4817 80.6456 42.2292 80.6456 41.9406C80.6456 41.6521 80.7479 41.4048 80.9526 41.1986C81.1574 40.9822 81.4081 40.874 81.7048 40.874C82.0017 40.874 82.2524 40.9822 82.457 41.1986C82.6617 41.4048 82.764 41.6521 82.764 41.9406C82.764 42.2292 82.6566 42.4817 82.4417 42.6981ZM82.5338 51.8958H80.8759V44.1666H82.5338V51.8958ZM92.6408 50.9219C91.8631 51.7051 90.9062 52.0968 89.7702 52.0968C88.6342 52.0968 87.6773 51.7051 86.8996 50.9219C86.1115 50.1284 85.7176 49.1649 85.7176 48.0312C85.7176 46.8976 86.1115 45.9341 86.8996 45.1405C87.6773 44.3573 88.6342 43.9657 89.7702 43.9657C90.9062 43.9657 91.8631 44.3573 92.6408 45.1405C93.4288 45.9341 93.8228 46.8976 93.8228 48.0312C93.8228 49.1649 93.4288 50.1284 92.6408 50.9219ZM87.3755 48.0312C87.3755 48.732 87.6057 49.3143 88.0662 49.778C88.5268 50.2418 89.0947 50.4736 89.7702 50.4736C90.4456 50.4736 91.0136 50.2418 91.4741 49.778C91.9347 49.3143 92.1649 48.732 92.1649 48.0312C92.1649 47.3304 91.9347 46.7482 91.4741 46.2844C91.0136 45.8207 90.4456 45.5888 89.7702 45.5888C89.0947 45.5888 88.5268 45.8207 88.0662 46.2844C87.6057 46.7482 87.3755 47.3304 87.3755 48.0312ZM101.048 43.9657C101.938 43.9657 102.649 44.2542 103.182 44.8314C103.724 45.3981 103.995 46.171 103.995 47.1501V51.8958H102.337V47.3201C102.337 46.743 102.184 46.2999 101.877 45.9907C101.57 45.6816 101.15 45.527 100.618 45.527C100.014 45.527 99.5383 45.7177 99.1904 46.0989C98.8425 46.4699 98.6684 47.0212 98.6684 47.753V51.8958H97.0105V44.1666H98.6684V45.156C99.1802 44.3624 99.9733 43.9657 101.048 43.9657Z" fill="#979797"/>
<path d="M2.85083 1.10419H15.0438C19.2543 1.10419 22.7631 2.59113 25.5701 5.56502C28.4064 8.50947 29.8245 12.1753 29.8245 16.5625C29.8245 20.9497 28.4064 24.6155 25.5701 27.56C22.7631 30.5339 19.2543 32.0209 15.0438 32.0209H2.85083V1.10419ZM8.90346 26.1909H15.0438C17.7047 26.1909 19.8684 25.3075 21.535 23.5409C23.2017 21.7153 24.035 19.3892 24.035 16.5625C24.035 13.7064 23.2017 11.395 21.535 9.62836C19.8684 7.83224 17.7047 6.93419 15.0438 6.93419H8.90346V26.1909Z" fill="#19282C"/>
<path d="M34.5566 32.0209V1.10419H38.6356V32.0209H34.5566Z" fill="#629576"/>
<path d="M51.8771 19.2567V26.1908H64.8157V32.0208H45.8245V1.10417H64.5964V6.93418H51.8771V13.515H63.4999V19.2567H51.8771ZM79.5645 32.6392C76.5529 32.6392 74.009 31.962 71.9329 30.6075C69.8569 29.253 68.3803 27.3833 67.5031 24.9983L72.6785 21.9508C73.8774 25.1014 76.2312 26.6767 79.7399 26.6767C81.3774 26.6767 82.6055 26.3822 83.4241 25.7933C84.2429 25.2045 84.6522 24.4095 84.6522 23.4083C84.6522 22.3189 84.1697 21.4797 83.2048 20.8908C82.2399 20.2725 80.5148 19.61 78.0294 18.9033C75.3394 18.0789 73.2195 17.122 71.6698 16.0325C69.7399 14.5897 68.775 12.4697 68.775 9.67251C68.775 6.84584 69.7546 4.62279 71.7136 3.00334C73.6727 1.32501 76.0557 0.48584 78.8627 0.48584C81.3189 0.48584 83.4973 1.08945 85.3978 2.29668C87.2985 3.50389 88.775 5.21168 89.8276 7.42001L84.7399 10.3792C83.5119 7.72918 81.5529 6.40418 78.8627 6.40418C77.6347 6.40418 76.6552 6.69862 75.9241 7.28751C75.1932 7.84696 74.8276 8.58306 74.8276 9.49584C74.8276 10.4675 75.2224 11.2625 76.0119 11.8808C76.889 12.4992 78.4388 13.147 80.661 13.8242L82.7662 14.5308C83.1464 14.6487 83.8043 14.8989 84.7399 15.2817C85.6171 15.6055 86.2604 15.9147 86.6698 16.2092C88.1025 17.0925 89.0674 18.0053 89.5645 18.9475C90.3248 20.1842 90.7048 21.6417 90.7048 23.32C90.7048 26.1762 89.6669 28.4433 87.5908 30.1217C85.5148 31.8 82.8394 32.6392 79.5645 32.6392ZM109 32.6392C104.409 32.6392 100.593 31.0933 97.5524 28.0017C94.5408 24.9395 93.0349 21.1264 93.0349 16.5625C93.0349 11.9692 94.5408 8.15612 97.5524 5.12334C100.593 2.03168 104.409 0.48584 109 0.48584C111.777 0.48584 114.336 1.14834 116.675 2.47334C119.044 3.76889 120.886 5.53556 122.202 7.77334L116.982 10.8208C116.223 9.43696 115.14 8.36223 113.737 7.59668C112.333 6.80168 110.754 6.40418 109 6.40418C106.017 6.40418 103.605 7.34639 101.763 9.23084C99.9501 11.1447 99.0437 13.5887 99.0437 16.5625C99.0437 19.507 99.9501 21.9362 101.763 23.85C103.605 25.7345 106.017 26.6767 109 26.6767C110.754 26.6767 112.333 26.2939 113.737 25.5283C115.169 24.7333 116.251 23.6587 116.982 22.3042L122.202 25.3517C120.886 27.5895 119.044 29.3708 116.675 30.6958C114.336 31.9914 111.777 32.6392 109 32.6392Z" fill="#19282C"/>
</svg>
