<?xml version="1.0" encoding="UTF-8"?>
<!DOCTYPE svg PUBLIC "-//W3C//DTD SVG 1.1//EN" "http://www.w3.org/Graphics/SVG/1.1/DTD/svg11.dtd">
<!-- Creator: CorelDRAW -->
<svg xmlns="http://www.w3.org/2000/svg" xml:space="preserve" width="69.3998mm" height="57.6791mm" version="1.1" style="shape-rendering:geometricPrecision; text-rendering:geometricPrecision; image-rendering:optimizeQuality; fill-rule:evenodd; clip-rule:evenodd"
viewBox="0 0 18993.34 15785.62"
 xmlns:xlink="http://www.w3.org/1999/xlink"
 xmlns:xodm="http://www.corel.com/coreldraw/odm/2003">
 <defs>
  <style type="text/css">
   <![CDATA[
    .fil2 {fill:#D0E4D7}
    .fil1 {fill:#19282C;fill-rule:nonzero}
    .fil0 {fill:#629576;fill-rule:nonzero}
   ]]>
  </style>
 </defs>
 <g id="Слой_x0020_1">
  <metadata id="CorelCorpID_0Corel-Layer"/>
  <path class="fil0" d="M18917.4 1482.96c-46.42,-25.32 -97.05,-12.67 -143.46,4.19 -392.54,130.82 -755.52,295.36 -1139.6,468.32 -97.1,46.42 -198.39,88.62 -295.44,135.03 -1042.5,464.08 -2106.13,881.77 -3127.51,1286.82 -620.49,244.7 -1261.97,497.85 -1890.86,759.43 46.42,-63.3 92.8,-135.01 109.69,-219.41 16.86,-97.02 -12.67,-189.85 -75.97,-240.48 -71.76,-54.85 -164.56,-50.63 -244.81,-37.96 -92.83,12.64 -185.66,33.74 -274.31,54.85l4.21 0 46.42 -21.1c206.79,-88.59 430.47,-210.95 531.79,-421.91 59.09,-130.79 54.87,-316.43 -71.68,-400.8 -109.8,-75.95 -249.02,-42.2 -388.35,4.21l-240.54 80.16c109.69,-59.06 219.46,-122.36 316.48,-198.31 173.08,-135.01 282.77,-303.76 308.11,-476.75 12.67,-92.8 -4.19,-215.17 -97.02,-274.23 -80.24,-50.63 -181.53,-29.56 -270.18,-4.24 -50.6,12.67 -101.29,29.56 -147.71,46.42 84.43,-54.85 164.59,-109.69 236.35,-177.18 194.12,-172.99 308.11,-379.73 320.78,-582.25 4.19,-97.05 -21.07,-215.17 -118.18,-253.13 -71.76,-29.56 -151.92,0 -227.87,33.74 80.13,-80.16 151.92,-160.32 219.38,-240.48 122.47,-147.68 253.32,-329.1 253.32,-535.84 0,-105.48 -42.23,-227.84 -147.73,-261.58 -80.24,-29.53 -168.86,8.46 -249.02,50.63 -291.25,151.89 -569.8,337.53 -806.15,497.85 -801.96,552.7 -1519.47,1329.02 -2080.79,2248.77 -544.46,894.44 -937,1881.71 -1253.51,2729.74 -493.83,-54.85 -877.94,-240.48 -1245.13,-417.69 -506.47,-244.7 -1029.83,-502.07 -1835.98,-396.59 -612,80.16 -1164.92,565.37 -1350.61,1177.13 -16.89,59.06 -33.77,118.15 -46.44,172.99 -33.74,143.44 -71.73,295.33 -156.16,413.48 -118.18,168.75 -299.65,223.6 -531.79,295.33 -88.64,25.32 -181.5,54.85 -278.58,92.83 -966.53,362.82 -1764.25,729.9 -2519.75,1329.02 -8.43,8.4 -12.64,21.07 -4.21,29.48 8.43,8.48 21.1,12.67 29.56,4.27 886.34,-569.58 1857.08,-970.39 2891.16,-1189.8 417.83,-88.59 848.35,-139.22 1148.01,84.38 350.34,265.83 725.96,451.49 1059.42,523.17 384.08,320.64 810.37,531.65 1261.97,620.21 557.13,881.8 1304.2,1611.67 2215.85,2168.61 -400.94,569.58 -772.41,1164.43 -1110.05,1771.97 -139.25,248.94 -270.12,497.91 -329.21,772.11 -67.52,312.24 -29.53,603.33 105.53,826.95 88.62,139.25 244.81,219.41 422.07,206.74 189.93,-12.67 333.45,-181.4 388.27,-337.53 38.01,-113.91 84.43,-223.6 139.33,-333.29 -84.43,232 -147.73,485.15 -139.33,742.49 12.67,400.86 215.28,755.25 519.2,907.17 143.44,71.68 299.62,88.56 422.01,42.15 249.02,-97.05 325.05,-392.32 388.32,-628.62 75.97,-286.87 177.24,-573.77 295.41,-848.08 -38.01,502.12 -12.67,1008.4 71.76,1506.23 33.74,215.22 88.64,430.36 253.24,565.4 156.19,126.58 362.98,147.65 569.8,147.65 16.86,0 33.74,0 50.6,0 202.61,-4.21 413.69,-16.89 565.61,-139.25 168.86,-134.98 219.46,-362.85 249.02,-565.31 46.42,-320.73 59.09,-649.74 46.42,-974.66l135.03 379.73c71.76,202.52 156.19,405.07 346.12,485.21 232.16,101.23 493.86,-50.6 637.29,-232.05 253.32,-312.24 333.48,-784.72 215.3,-1265.77 -46.42,-185.58 -118.18,-379.65 -223.68,-594.84 113.96,97.02 270.09,202.52 443.14,198.25 232.16,-8.4 400.94,-202.47 481.18,-383.92 168.78,-375.46 105.5,-873.34 -173.08,-1299.49 -122.36,-185.58 -282.77,-362.79 -498.04,-556.91 42.23,12.67 84.43,21.13 126.66,25.34 105.5,4.19 227.87,-50.63 265.88,-160.32 29.56,-88.64 -4.27,-181.48 -46.42,-265.83 -443.22,-919.73 -1228.25,-1687.59 -2161.03,-2113.71 126.63,-29.56 244.81,-118.12 312.38,-244.7 75.95,-135.03 101.32,-308.03 80.16,-531.62 -8.4,-67.49 -16.89,-139.25 -25.34,-206.74 -4.21,-21.07 -8.4,-46.42 -8.4,-67.49 46.42,50.6 97.02,84.35 151.92,105.5 113.96,42.15 232.14,25.26 312.3,0 97.1,-29.56 189.93,-84.43 278.58,-135.06 80.24,-46.39 156.19,-97.02 181.53,-185.64 16.89,-67.49 -4.27,-143.44 -63.36,-223.6 -4.21,-8.43 -12.59,-16.89 -16.89,-25.32 303.92,101.26 662.63,46.42 907.47,-147.68 88.64,-71.73 135.06,-143.44 147.73,-219.38 8.46,-63.3 -8.4,-126.58 -54.9,-194.09 198.42,59.09 430.55,50.63 654.23,-25.32 291.25,-101.23 540.27,-291.11 776.62,-476.75 33.74,-25.32 130.85,-101.26 105.5,-194.07 -12.67,-42.2 -50.63,-71.73 -88.64,-97.05 -50.6,-33.74 -105.5,-63.27 -160.38,-88.59 595.14,-33.77 1177.54,-278.47 1612.3,-679.27 105.5,-97.05 143.52,-185.64 118.18,-265.8 -21.07,-71.73 -88.64,-113.93 -160.4,-147.68 -88.62,-42.2 -177.26,-84.38 -270.09,-118.15 291.25,-37.96 599.36,-84.38 894.8,-189.85 282.77,-101.26 671.04,-303.78 898.98,-679.27 46.42,-75.95 54.87,-135.01 25.34,-181.42 -38.01,-59.06 -113.99,-59.06 -173.08,-54.85 -194.12,12.67 -392.54,33.74 -586.66,54.85 299.62,-109.69 612,-232.03 911.66,-392.38 498.04,-270.01 869.43,-599.09 1114.26,-983.03 21.07,-33.74 46.42,-71.73 50.6,-118.15 -16.86,-46.42 -29.53,-101.26 -75.95,-126.55zm-6209.47 9141.57c30.93,25.15 35.63,70.64 10.48,101.56 -25.15,30.93 -70.64,35.63 -101.56,10.48 -44.88,-36.34 -89.77,-71.84 -133.94,-106.22 -40.48,-31.56 -86.92,-67.16 -134.46,-103.4 -31.69,-24.19 -37.77,-69.57 -13.57,-101.26 24.19,-31.69 69.57,-37.77 101.26,-13.57 41.02,31.25 85.44,65.38 135.61,104.49 46.53,36.21 92.48,72.53 136.18,107.91zm-160.02 1999.1c19.68,34.68 7.5,78.77 -27.18,98.44 -34.68,19.68 -78.77,7.5 -98.44,-27.18 -34.26,-60.46 -69.84,-122.09 -107.58,-186.08 -36.15,-61.3 -72.83,-122.06 -110.46,-182.63 -21.07,-33.88 -10.67,-78.49 23.21,-99.56 33.88,-21.07 78.49,-10.67 99.56,23.21 38.32,61.66 75.54,123.35 112.15,185.42 35,59.33 71.27,122.28 108.73,188.37zm-1012.32 1179.83c4.21,39.66 -24.55,75.26 -64.21,79.48 -39.66,4.21 -75.26,-24.55 -79.48,-64.21 -16.61,-153.37 -39.57,-306.36 -69.38,-458.96 -29.89,-153.12 -66.29,-304.09 -109.61,-452.61 -11.08,-38.26 10.95,-78.3 49.21,-89.38 38.26,-11.08 78.3,10.95 89.38,49.21 45.27,155.26 82.79,310.27 113,465.09 30.32,155.34 53.89,312.52 71.07,471.39zm-1674.59 -462.22c-17.79,35.61 -61.14,50.06 -96.75,32.27 -35.61,-17.79 -50.06,-61.14 -32.27,-96.75 45.46,-90.92 92.48,-178.52 140.97,-263.91 49.7,-87.47 100.82,-172.69 153.37,-256.74 21.07,-33.88 65.68,-44.28 99.56,-23.21 33.88,21.07 44.28,65.68 23.21,99.56 -52.87,84.57 -103.15,168.29 -150.52,251.65 -48.52,85.42 -94.47,170.94 -137.58,257.12zm-1308.66 -477.02c-22.33,33.12 -67.3,41.85 -100.41,19.51 -33.12,-22.33 -41.85,-67.3 -19.51,-100.41 98.33,-145.32 206.77,-284.76 323.49,-419.17 116.26,-133.86 240.32,-262.1 370.48,-385.81 28.87,-27.48 74.63,-26.33 102.11,2.55 27.48,28.87 26.33,74.63 -2.55,102.11 -127.26,120.91 -248.15,245.87 -360.85,375.63 -112.21,129.23 -217,264.07 -312.76,405.59zm100.93 -2300.45c-26.38,-30 -23.48,-75.75 6.51,-102.14 30,-26.38 75.75,-23.48 102.14,6.51 120.12,136.35 265.52,257.37 423.79,355.21 158.46,97.95 330,173.08 502.31,217.66 38.56,9.99 61.74,49.43 51.75,87.99 -9.99,38.56 -49.43,61.74 -87.99,51.75 -186.21,-48.17 -371.27,-129.15 -541.89,-234.63 -171.02,-105.72 -327.7,-235.99 -456.64,-382.36zm-4614.16 -3713.65c6.71,39.36 -19.79,76.74 -59.14,83.45 -39.36,6.71 -76.74,-19.79 -83.45,-59.14 -33.31,-193.05 -15.08,-392.54 45.43,-579.35 61.69,-190.48 167.52,-368.13 307.53,-512.6 150.41,-154.71 336.85,-269.88 539.4,-343.82 209.97,-76.66 437.56,-109.14 660.42,-95.65l0.27 0.03c109.01,6.92 218.29,23.67 323.22,53.42 95.98,27.2 188.62,65.38 274.56,116.86 41.05,24.14 83.17,52.77 125.04,81.2 47.32,32.16 94.39,64.15 142.86,90.56 119.49,62.21 252.69,88.59 387.8,86.67 150.69,-2.11 303.73,-39.52 443.03,-101.86 36.37,-16.23 79.09,0.11 95.32,36.48 16.23,36.37 -0.11,79.09 -36.48,95.32 -156.3,69.98 -329.02,111.94 -500.18,114.34 -157.61,2.22 -314.08,-29.09 -455.76,-102.82l-2.76 -1.42c-53.94,-29.39 -104.22,-63.58 -154.74,-97.9 -37.58,-25.53 -75.43,-51.23 -117.66,-76.19l-0.27 -0.27c-74.33,-44.56 -155.31,-77.83 -239.8,-101.78 -94.8,-26.88 -193.96,-42.04 -293.22,-48.36 -203.48,-12.29 -411.09,17.3 -602.45,87.17 -182.63,66.7 -350.34,170.12 -485.1,308.74 -124.52,128.49 -218.67,286.54 -273.54,456.01 -53.48,165.11 -69.62,341.06 -40.34,510.93zm802.24 -705.05c-12.59,-4.11 -25.34,-7.96 -38.26,-11.39 -30.1,-7.96 -60.98,-13.27 -92.39,-13.27 -30.84,0 -61.14,5.12 -87.5,15.76 -22.03,8.89 -41.41,21.73 -55.72,38.64l-2 2.27c-16.01,17.32 -26.63,40.37 -30,64.04 -2.82,19.76 -0.49,39.27 8.21,54.9 10.26,15.87 26.96,28.19 46.06,35.55 19.9,7.69 41.71,9.74 61.17,4.9 25.84,-6.46 50.99,-17.87 73.59,-33.31 22.41,-15.3 42.37,-34.46 58.16,-56.57l3.69 -4.76c18.88,-22.36 34.24,-46.88 45.46,-72.14 3.56,-8.27 6.73,-16.39 9.52,-24.63zm-1.48 -151.13c36.15,9.55 71.46,22.22 105.75,35.03 33.77,9.47 56.51,42.5 52.16,78.41 -5.06,40.67 -16.69,81.64 -34.16,120.88 -16.91,37.77 -38.97,73.51 -65.49,105.15 -25.62,35.09 -57.12,65.19 -92.18,89.14 -36.76,25.1 -77.7,43.68 -119.95,54.22 -48.58,12.12 -101.34,7.58 -148.31,-10.54 -46.58,-17.98 -88.37,-49.76 -115.74,-92.31l-1.15 -1.97c-27.56,-45.87 -35.85,-99.59 -28.46,-151.18 7.33,-51.48 30.62,-101.97 65.87,-140.56 30.08,-35.06 68.56,-60.92 111.22,-78.14 44.31,-17.9 93.11,-26.49 141.25,-26.49 44.5,0 87.55,7.36 129.18,18.36zm3293.99 311.53c-39.66,-4.52 -68.15,-40.4 -63.63,-80.05 4.52,-39.66 40.4,-68.15 80.05,-63.63 301.08,34.73 604.07,14.26 901.2,-45.65 338.51,-68.26 670.52,-188.02 984.32,-336.02 431.84,-203.65 838.5,-458.96 1244.23,-713.65 156.85,-98.44 313.64,-196.89 462.9,-287.09 395.74,-239.03 803.77,-461.97 1222.31,-667.59 415.53,-204.17 839.65,-390.24 1270.75,-557.1 37.17,-14.37 78.98,4.13 93.35,41.3 14.37,37.17 -4.13,78.98 -41.3,93.35 -428.04,165.69 -848.41,350.06 -1259.42,552.01 -411.61,202.19 -815.84,423.25 -1211.03,661.95 -160.08,96.72 -310.3,191.06 -460.6,285.39 -409.84,257.26 -820.6,515.15 -1259.5,722.13 -322.94,152.33 -665.95,275.84 -1017.71,346.75 -311.83,62.89 -629.85,84.35 -945.92,47.89zm1759.35 1022.61c-3.26,-39.82 26.38,-74.82 66.2,-78.08 39.82,-3.26 74.82,26.38 78.08,66.2 10.37,124.91 26.68,248.04 48.3,368.37 22.25,123.7 50.44,247.02 84.05,368.78 11.06,38.18 26.05,78.44 46.42,107.97 14.59,21.1 31.75,36.43 51.32,38.29 16.83,1.59 33.31,-6.4 48.44,-19.54 27.67,-23.97 50.9,-63.25 68.56,-102.33 39.05,-88.45 70.83,-179.94 94.15,-273.16 22.63,-90.53 37.44,-182.9 43.38,-276.03 2.49,-39.82 36.84,-70.12 76.66,-67.63 39.82,2.49 70.12,36.84 67.63,76.66 -6.32,99.43 -21.78,197.76 -45.32,293.85 5.36,27.12 11.6,53.72 18.97,79.81 8.16,28.74 17.73,56.46 29.09,82.98 22.82,53.29 55.42,103.51 95.6,144.31 35.72,36.26 77.62,65.11 123.95,81.64 37.63,13.41 57.25,54.87 43.84,92.5 -13.41,37.63 -54.87,57.25 -92.5,43.84 -67.33,-24.06 -127.51,-65.22 -178.25,-116.72 -48.22,-48.99 -87.96,-107.67 -117.08,-169.96 -8.84,22.25 -18.09,44.31 -27.75,66.18l-0.3 0.55c-24.82,55.12 -59.88,112.65 -106.13,152.71 -43.27,37.52 -95.21,59.8 -156.49,54.02 -68.97,-6.6 -119.46,-46.2 -156.57,-99.92 -31.25,-45.29 -52.27,-100.11 -66.64,-150.44l0 -0.57c-34.51,-125.02 -63.69,-252.83 -86.98,-382.33 -23.07,-128.3 -40.15,-256.06 -50.6,-381.95zm-1860.5 411.97c32.49,-23.1 77.62,-15.52 100.71,16.97 23.1,32.49 15.52,77.62 -16.97,100.71 -219.38,157.01 -470.48,276.72 -734.69,356.47 -269.33,81.28 -553.27,121.13 -831.99,116.72 -39.82,-0.6 -71.62,-33.44 -71.02,-73.26 0.6,-39.82 33.44,-71.62 73.26,-71.02 263.25,4.16 532.34,-33.74 788.42,-111.03 249.46,-75.29 486.08,-187.99 692.27,-335.56zm79.2 -2105.12c-39.82,-2.65 -69.98,-37.14 -67.33,-76.96 2.65,-39.82 37.14,-69.98 76.96,-67.33 32.62,2.16 62.62,3.2 91.27,3.69l98.39 0.38c872,-15.46 1710.83,-400.15 2523.28,-772.76 162.7,-74.61 324.5,-148.85 469.2,-212.62l4.02 -1.61c150.63,-65.85 289.91,-126.36 414.02,-179.7 113.19,-48.66 245.41,-104.93 397.74,-169.16 36.7,-15.44 79.04,1.78 94.47,38.48 15.44,36.7 -1.78,79.04 -38.48,94.47 -111.06,46.83 -244.34,103.72 -396.59,169.16 -152.25,65.44 -289.53,124.99 -413.31,179.07l-3.59 1.7c-165.66,73.02 -316.13,142.04 -467.5,211.47 -825.61,378.66 -1678.04,769.59 -2579.95,785.79l-7.85 0.41c-23.86,0 -47.81,-0.03 -96.09,-0.79 -34.59,-0.57 -68.04,-1.67 -98.66,-3.69z"/>
  <path class="fil1" d="M8111.91 5634.94c-39.82,-2.65 -69.98,-37.14 -67.33,-76.96 2.65,-39.82 37.14,-69.98 76.96,-67.33 32.62,2.16 62.62,3.2 91.27,3.69l98.39 0.38c872,-15.46 1710.83,-400.15 2523.28,-772.76 162.7,-74.61 324.5,-148.85 469.2,-212.62l4.02 -1.61c150.63,-65.85 289.91,-126.36 414.02,-179.7 113.19,-48.66 245.41,-104.93 397.74,-169.16 36.7,-15.44 79.04,1.78 94.47,38.48 15.44,36.7 -1.78,79.04 -38.48,94.47 -111.06,46.83 -244.34,103.72 -396.59,169.16 -152.25,65.44 -289.53,124.99 -413.31,179.07l-3.59 1.7c-165.66,73.02 -316.13,142.04 -467.5,211.47 -825.61,378.66 -1678.04,769.59 -2579.95,785.79l-7.85 0.41c-23.86,0 -47.81,-0.03 -96.09,-0.79 -34.59,-0.57 -68.04,-1.67 -98.66,-3.69z"/>
  <path class="fil1" d="M8032.7 7740.06c32.49,-23.1 77.62,-15.52 100.71,16.97 23.1,32.49 15.52,77.62 -16.97,100.71 -219.38,157.01 -470.48,276.72 -734.69,356.47 -269.33,81.28 -553.27,121.13 -831.99,116.72 -39.82,-0.6 -71.62,-33.44 -71.02,-73.26 0.6,-39.82 33.44,-71.62 73.26,-71.02 263.25,4.16 532.34,-33.74 788.42,-111.03 249.46,-75.29 486.08,-187.99 692.27,-335.56z"/>
  <path class="fil1" d="M9893.21 7328.09c-3.26,-39.82 26.38,-74.82 66.2,-78.08 39.82,-3.26 74.82,26.38 78.08,66.2 10.37,124.91 26.68,248.04 48.3,368.37 22.25,123.7 50.44,247.02 84.05,368.78 11.06,38.18 26.05,78.44 46.42,107.97 14.59,21.1 31.75,36.43 51.32,38.29 16.83,1.59 33.31,-6.4 48.44,-19.54 27.67,-23.97 50.9,-63.25 68.56,-102.33 39.05,-88.45 70.83,-179.94 94.15,-273.16 22.63,-90.53 37.44,-182.9 43.38,-276.03 2.49,-39.82 36.84,-70.12 76.66,-67.63 39.82,2.49 70.12,36.84 67.63,76.66 -6.51,102.27 -22.69,203.37 -47.37,302.09 -25.42,101.59 -59.85,200.83 -102.08,296.34l-0.3 0.55c-24.82,55.12 -59.88,112.65 -106.13,152.71 -43.27,37.52 -95.21,59.8 -156.49,54.02 -68.97,-6.6 -119.46,-46.2 -156.57,-99.92 -31.25,-45.29 -52.27,-100.11 -66.64,-150.44l0 -0.57c-34.51,-125.02 -63.69,-252.83 -86.98,-382.33 -23.07,-128.3 -40.15,-256.06 -50.6,-381.95z"/>
  <path class="fil1" d="M10476.75 7845.94c-7.33,-39.19 18.5,-76.96 57.69,-84.29 39.19,-7.33 76.96,18.5 84.29,57.69 5.88,31.31 12.84,61.96 21.29,91.9 8.16,28.74 17.73,56.46 29.09,82.98 22.82,53.29 55.42,103.51 95.6,144.31 35.72,36.26 77.62,65.11 123.95,81.64 37.63,13.41 57.25,54.87 43.84,92.5 -13.41,37.63 -54.87,57.25 -92.5,43.84 -67.33,-24.06 -127.51,-65.22 -178.25,-116.72 -53.09,-53.94 -95.9,-119.65 -125.59,-188.98 -13.93,-32.54 -25.56,-66.07 -35.33,-100.55 -9.41,-33.31 -17.3,-68.17 -24.08,-104.33z"/>
  <path class="fil1" d="M8133.85 6305.48c-39.66,-4.52 -68.15,-40.4 -63.63,-80.05 4.52,-39.66 40.4,-68.15 80.05,-63.63 301.08,34.73 604.07,14.26 901.2,-45.65 338.51,-68.26 670.52,-188.02 984.32,-336.02 431.84,-203.65 838.5,-458.96 1244.23,-713.65 156.85,-98.44 313.64,-196.89 462.9,-287.09 395.74,-239.03 803.77,-461.97 1222.31,-667.59 415.53,-204.17 839.65,-390.24 1270.75,-557.1 37.17,-14.37 78.98,4.13 93.35,41.3 14.37,37.17 -4.13,78.98 -41.3,93.35 -428.04,165.69 -848.41,350.06 -1259.42,552.01 -411.61,202.19 -815.84,423.25 -1211.03,661.95 -160.08,96.72 -310.3,191.06 -460.6,285.39 -409.84,257.26 -820.6,515.15 -1259.5,722.13 -322.94,152.33 -665.95,275.84 -1017.71,346.75 -311.83,62.89 -629.85,84.35 -945.92,47.89z"/>
  <path class="fil1" d="M4841.35 6145.08c-12.59,-4.11 -25.34,-7.96 -38.26,-11.39 -30.1,-7.96 -60.98,-13.27 -92.39,-13.27 -30.84,0 -61.14,5.12 -87.5,15.76 -22.03,8.89 -41.41,21.73 -55.72,38.64l-2 2.27c-16.01,17.32 -26.63,40.37 -30,64.04 -2.82,19.76 -0.49,39.27 8.21,54.9 10.26,15.87 26.96,28.19 46.06,35.55 19.9,7.69 41.71,9.74 61.17,4.9 25.84,-6.46 50.99,-17.87 73.59,-33.31 22.41,-15.3 42.37,-34.46 58.16,-56.57l3.69 -4.76c18.88,-22.36 34.24,-46.88 45.46,-72.14 3.56,-8.27 6.73,-16.39 9.52,-24.63zm-1.48 -151.13c36.15,9.55 71.46,22.22 105.75,35.03 33.77,9.47 56.51,42.5 52.16,78.41 -5.06,40.67 -16.69,81.64 -34.16,120.88 -16.91,37.77 -38.97,73.51 -65.49,105.15 -25.62,35.09 -57.12,65.19 -92.18,89.14 -36.76,25.1 -77.7,43.68 -119.95,54.22 -48.58,12.12 -101.34,7.58 -148.31,-10.54 -46.58,-17.98 -88.37,-49.76 -115.74,-92.31l-1.15 -1.97c-27.56,-45.87 -35.85,-99.59 -28.46,-151.18 7.33,-51.48 30.62,-101.97 65.87,-140.56 30.08,-35.06 68.56,-60.92 111.22,-78.14 44.31,-17.9 93.11,-26.49 141.25,-26.49 44.5,0 87.55,7.36 129.18,18.36z"/>
  <path class="fil1" d="M4039.11 6850.13c6.71,39.36 -19.79,76.74 -59.14,83.45 -39.36,6.71 -76.74,-19.79 -83.45,-59.14 -33.31,-193.05 -15.08,-392.54 45.43,-579.35 61.69,-190.48 167.52,-368.13 307.53,-512.6 150.41,-154.71 336.85,-269.88 539.4,-343.82 209.97,-76.66 437.56,-109.14 660.42,-95.65l0.27 0.03c109.01,6.92 218.29,23.67 323.22,53.42 95.98,27.2 188.62,65.38 274.56,116.86 41.05,24.14 83.17,52.77 125.04,81.2 47.32,32.16 94.39,64.15 142.86,90.56 119.49,62.21 252.69,88.59 387.8,86.67 150.69,-2.11 303.73,-39.52 443.03,-101.86 36.37,-16.23 79.09,0.11 95.32,36.48 16.23,36.37 -0.11,79.09 -36.48,95.32 -156.3,69.98 -329.02,111.94 -500.18,114.34 -157.61,2.22 -314.08,-29.09 -455.76,-102.82l-2.76 -1.42c-53.94,-29.39 -104.22,-63.58 -154.74,-97.9 -37.58,-25.53 -75.43,-51.23 -117.66,-76.19l-0.27 -0.27c-74.33,-44.56 -155.31,-77.83 -239.8,-101.78 -94.8,-26.88 -193.96,-42.04 -293.22,-48.36 -203.48,-12.29 -411.09,17.3 -602.45,87.17 -182.63,66.7 -350.34,170.12 -485.1,308.74 -124.52,128.49 -218.67,286.54 -273.54,456.01 -53.48,165.11 -69.62,341.06 -40.34,510.93z"/>
  <path class="fil1" d="M8653.27 10563.78c-26.38,-30 -23.48,-75.75 6.51,-102.14 30,-26.38 75.75,-23.48 102.14,6.51 120.12,136.35 265.52,257.37 423.79,355.21 158.46,97.95 330,173.08 502.31,217.66 38.56,9.99 61.74,49.43 51.75,87.99 -9.99,38.56 -49.43,61.74 -87.99,51.75 -186.21,-48.17 -371.27,-129.15 -541.89,-234.63 -171.02,-105.72 -327.7,-235.99 -456.64,-382.36z"/>
  <path class="fil1" d="M8552.34 12864.22c-22.33,33.12 -67.3,41.85 -100.41,19.51 -33.12,-22.33 -41.85,-67.3 -19.51,-100.41 98.33,-145.32 206.77,-284.76 323.49,-419.17 116.26,-133.86 240.32,-262.1 370.48,-385.81 28.87,-27.48 74.63,-26.33 102.11,2.55 27.48,28.87 26.33,74.63 -2.55,102.11 -127.26,120.91 -248.15,245.87 -360.85,375.63 -112.21,129.23 -217,264.07 -312.76,405.59z"/>
  <path class="fil1" d="M9861 13341.25c-17.79,35.61 -61.14,50.06 -96.75,32.27 -35.61,-17.79 -50.06,-61.14 -32.27,-96.75 45.46,-90.92 92.48,-178.52 140.97,-263.91 49.7,-87.47 100.82,-172.69 153.37,-256.74 21.07,-33.88 65.68,-44.28 99.56,-23.21 33.88,21.07 44.28,65.68 23.21,99.56 -52.87,84.57 -103.15,168.29 -150.52,251.65 -48.52,85.42 -94.47,170.94 -137.58,257.12z"/>
  <path class="fil1" d="M11535.59 13803.47c4.21,39.66 -24.55,75.26 -64.21,79.48 -39.66,4.21 -75.26,-24.55 -79.48,-64.21 -16.61,-153.37 -39.57,-306.36 -69.38,-458.96 -29.89,-153.12 -66.29,-304.09 -109.61,-452.61 -11.08,-38.26 10.95,-78.3 49.21,-89.38 38.26,-11.08 78.3,10.95 89.38,49.21 45.27,155.26 82.79,310.27 113,465.09 30.32,155.34 53.89,312.52 71.07,471.39z"/>
  <path class="fil1" d="M12547.9 12623.63c19.68,34.68 7.5,78.77 -27.18,98.44 -34.68,19.68 -78.77,7.5 -98.44,-27.18 -34.26,-60.46 -69.84,-122.09 -107.58,-186.08 -36.15,-61.3 -72.83,-122.06 -110.46,-182.63 -21.07,-33.88 -10.67,-78.49 23.21,-99.56 33.88,-21.07 78.49,-10.67 99.56,23.21 38.32,61.66 75.54,123.35 112.15,185.42 35,59.33 71.27,122.28 108.73,188.37z"/>
  <path class="fil1" d="M12707.92 10624.54c30.93,25.15 35.63,70.64 10.48,101.56 -25.15,30.93 -70.64,35.63 -101.56,10.48 -44.88,-36.34 -89.77,-71.84 -133.94,-106.22 -40.48,-31.56 -86.92,-67.16 -134.46,-103.4 -31.69,-24.19 -37.77,-69.57 -13.57,-101.26 24.19,-31.69 69.57,-37.77 101.26,-13.57 41.02,31.25 85.44,65.38 135.61,104.49 46.53,36.21 92.48,72.53 136.18,107.91z"/>
  <path class="fil2" d="M12348.45 10526.97c-31.69,-24.19 -37.77,-69.57 -13.57,-101.26 24.19,-31.69 69.57,-37.77 101.26,-13.57 41.02,31.25 85.44,65.38 135.61,104.49 46.53,36.21 92.48,72.53 136.18,107.91 30.93,25.15 35.63,70.64 10.48,101.56 -25.15,30.93 -70.64,35.63 -101.56,10.48 -44.88,-36.34 -89.77,-71.84 -133.94,-106.22 -40.48,-31.56 -86.92,-67.16 -134.46,-103.4zm-3695.17 36.81c-26.38,-30 -23.48,-75.75 6.51,-102.14 30,-26.38 75.75,-23.48 102.14,6.51 120.12,136.35 265.52,257.37 423.79,355.21 158.46,97.95 330,173.08 502.31,217.66 38.56,9.99 61.74,49.43 51.75,87.99 -9.99,38.56 -49.43,61.74 -87.99,51.75 -186.21,-48.17 -371.27,-129.15 -541.89,-234.63 -171.02,-105.72 -327.7,-235.99 -456.64,-382.36zm1377.51 -2471.41c-34.51,-125.02 -63.69,-252.83 -86.98,-382.33 -23.07,-128.3 -40.15,-256.06 -50.6,-381.95 -3.26,-39.82 26.38,-74.82 66.2,-78.08 39.82,-3.26 74.82,26.38 78.08,66.2 10.37,124.91 26.68,248.04 48.3,368.37 22.25,123.7 50.44,247.02 84.05,368.78 11.06,38.18 26.05,78.44 46.42,107.97 14.59,21.1 31.75,36.43 51.32,38.29 16.83,1.59 33.31,-6.4 48.44,-19.54 27.67,-23.97 50.9,-63.25 68.56,-102.33 39.05,-88.45 70.83,-179.94 94.15,-273.16 22.63,-90.53 37.44,-182.9 43.38,-276.03 2.49,-39.82 36.84,-70.12 76.66,-67.63 39.82,2.49 70.12,36.84 67.63,76.66 -6.32,99.43 -21.78,197.76 -45.32,293.8 5.36,27.15 11.6,53.78 18.97,79.86 8.16,28.74 17.73,56.46 29.09,82.98 22.82,53.29 55.42,103.51 95.6,144.31 35.72,36.26 77.62,65.11 123.95,81.64 37.63,13.41 57.25,54.87 43.84,92.5 -13.41,37.63 -54.87,57.25 -92.5,43.84 -67.33,-24.06 -127.51,-65.22 -178.25,-116.72 -48.22,-48.99 -87.96,-107.67 -117.08,-169.96 -8.81,22.25 -18.09,44.31 -27.75,66.18l-0.3 0.55c-24.82,55.12 -59.88,112.65 -106.13,152.71 -43.27,37.52 -95.21,59.8 -156.49,54.02 -68.97,-6.6 -119.46,-46.2 -156.57,-99.92 -31.25,-45.29 -52.27,-100.11 -66.64,-150.44l0 -0.57zm1813.19 -4400.72l-4.63 2.11 -4.21 0c2.93,-0.71 5.88,-1.4 8.84,-2.11zm-486.99 1497.06c-409.84,257.26 -820.6,515.15 -1259.5,722.13 -322.94,152.33 -665.95,275.84 -1017.71,346.75 -311.83,62.89 -629.85,84.35 -945.92,47.89 -39.66,-4.52 -68.15,-40.4 -63.63,-80.05 4.52,-39.66 40.4,-68.15 80.05,-63.63 301.08,34.73 604.07,14.26 901.2,-45.65 338.51,-68.26 670.52,-188.02 984.32,-336.02 431.84,-203.65 838.5,-458.96 1244.23,-713.65 156.85,-98.44 313.64,-196.89 462.9,-287.09 395.74,-239.03 803.77,-461.97 1222.31,-667.59 415.53,-204.17 839.65,-390.24 1270.75,-557.1 37.17,-14.37 78.98,4.13 93.35,41.3 14.37,37.17 -4.13,78.98 -41.3,93.35 -428.04,165.69 -848.41,350.06 -1259.42,552.01 -411.61,202.19 -815.84,423.25 -1211.03,661.95 -160.08,96.72 -310.3,191.06 -460.6,285.39zm421.88 -727.72c-152.25,65.44 -289.53,124.99 -413.31,179.07l-3.59 1.7c-165.66,73.02 -316.13,142.04 -467.5,211.47 -825.61,378.66 -1678.04,769.59 -2579.95,785.79l-7.85 0.41c-23.86,0 -47.81,-0.03 -96.09,-0.79 -34.59,-0.57 -68.04,-1.67 -98.66,-3.69 -39.82,-2.65 -69.98,-37.14 -67.33,-76.96 2.65,-39.82 37.14,-69.98 76.96,-67.33 32.62,2.16 62.62,3.2 91.27,3.69l98.39 0.38c872,-15.46 1710.83,-400.15 2523.28,-772.76 162.7,-74.61 324.5,-148.85 469.2,-212.62l4.02 -1.61c150.63,-65.85 289.91,-126.36 414.02,-179.7 113.19,-48.66 245.41,-104.93 397.74,-169.16 36.7,-15.44 79.04,1.78 94.47,38.48 15.44,36.7 -1.78,79.04 -38.48,94.47 -111.06,46.83 -244.34,103.72 -396.59,169.16zm330.58 -822.08c-89.77,12.23 -179.51,32.35 -265.47,52.74l41.79 -18.99c206.79,-88.59 430.47,-210.95 531.79,-421.91 59.09,-130.79 54.87,-316.43 -71.68,-400.8 -109.8,-75.95 -249.02,-42.2 -388.35,4.21l-240.54 80.16c109.69,-59.06 219.46,-122.36 316.48,-198.31 173.08,-135.01 282.77,-303.76 308.11,-476.75 12.67,-92.8 -4.19,-215.17 -97.02,-274.23 -80.24,-50.63 -181.53,-29.56 -270.18,-4.24 -50.6,12.67 -101.29,29.56 -147.71,46.42 84.43,-54.85 164.59,-109.69 236.35,-177.18 194.12,-172.99 308.11,-379.73 320.78,-582.25 4.19,-97.05 -21.07,-215.17 -118.18,-253.13 -71.76,-29.56 -151.92,0 -227.87,33.74 80.13,-80.16 151.92,-160.32 219.38,-240.48 122.47,-147.68 253.32,-329.1 253.32,-535.84 0,-105.48 -42.23,-227.84 -147.73,-261.58 -80.24,-29.53 -168.86,8.46 -249.02,50.63 -291.25,151.89 -569.8,337.53 -806.15,497.85 -801.96,552.7 -1519.47,1329.02 -2080.79,2248.77 -544.46,894.44 -937,1881.71 -1253.51,2729.74 -493.83,-54.85 -877.94,-240.48 -1245.13,-417.69 -506.47,-244.7 -1029.83,-502.07 -1835.98,-396.59 -612,80.16 -1164.92,565.37 -1350.61,1177.13 -16.89,59.06 -33.77,118.15 -46.44,172.99 -33.74,143.44 -71.73,295.33 -156.16,413.48 -118.18,168.75 -299.65,223.6 -531.79,295.33 -88.64,25.32 -181.5,54.85 -278.58,92.83 -966.53,362.82 -1764.25,729.9 -2519.75,1329.02 -8.43,8.4 -12.64,21.07 -4.21,29.48 8.43,8.48 21.1,12.67 29.56,4.27 886.34,-569.58 1857.08,-970.39 2891.16,-1189.8 417.83,-88.59 848.35,-139.22 1148.01,84.38 350.34,265.83 725.96,451.49 1059.42,523.17 384.08,320.64 810.37,531.65 1261.97,620.21 557.13,881.8 1304.2,1611.67 2215.85,2168.61 -400.94,569.58 -772.41,1164.43 -1110.05,1771.97 -139.25,248.94 -270.12,497.91 -329.21,772.11 -67.52,312.24 -29.53,603.33 105.53,826.95 88.62,139.25 244.81,219.41 422.07,206.74 189.93,-12.67 333.45,-181.4 388.27,-337.53 38.01,-113.91 84.43,-223.6 139.33,-333.29 -84.43,232 -147.73,485.15 -139.33,742.49 12.67,400.86 215.28,755.25 519.2,907.17 143.44,71.68 299.62,88.56 422.01,42.15 249.02,-97.05 325.05,-392.32 388.32,-628.62 75.97,-286.87 177.24,-573.77 295.41,-848.08 -38.01,502.12 -12.67,1008.4 71.76,1506.23 33.74,215.22 88.64,430.36 253.24,565.4 156.19,126.58 362.98,147.65 569.8,147.65 16.86,0 33.74,0 50.6,0 202.61,-4.21 413.69,-16.89 565.61,-139.25 168.86,-134.98 219.46,-362.85 249.02,-565.31 46.42,-320.73 59.09,-649.74 46.42,-974.66l135.03 379.73c71.76,202.52 156.19,405.07 346.12,485.21 232.16,101.23 493.86,-50.6 637.29,-232.05 253.32,-312.24 333.48,-784.72 215.3,-1265.77 -46.42,-185.58 -118.18,-379.65 -223.68,-594.84 113.96,97.02 270.09,202.52 443.14,198.25 232.16,-8.4 400.94,-202.47 481.18,-383.92 168.78,-375.46 105.5,-873.34 -173.08,-1299.49 -122.36,-185.58 -282.77,-362.79 -498.04,-556.91 42.23,12.67 84.43,21.13 126.66,25.34 105.5,4.19 227.87,-50.63 265.88,-160.32 29.56,-88.64 -4.27,-181.48 -46.42,-265.83 -443.22,-919.73 -1228.25,-1687.59 -2161.03,-2113.71 126.63,-29.56 244.81,-118.12 312.38,-244.7 75.95,-135.03 101.32,-308.03 80.16,-531.62 -8.4,-67.49 -16.89,-139.25 -25.34,-206.74 -4.21,-21.07 -8.4,-46.42 -8.4,-67.49 46.42,50.6 97.02,84.35 151.92,105.5 113.96,42.15 232.14,25.26 312.3,0 97.1,-29.56 189.93,-84.43 278.58,-135.06 80.24,-46.39 156.19,-97.02 181.53,-185.64 16.89,-67.49 -4.27,-143.44 -63.36,-223.6 -4.21,-8.43 -12.59,-16.89 -16.89,-25.32 303.92,101.26 662.63,46.42 907.47,-147.68 88.64,-71.73 135.06,-143.44 147.73,-219.38 8.46,-63.3 -8.4,-126.58 -54.9,-194.09 198.42,59.09 430.55,50.63 654.23,-25.32 291.25,-101.23 540.27,-291.11 776.62,-476.75 33.74,-25.32 130.85,-101.26 105.5,-194.07 -12.67,-42.2 -50.63,-71.73 -88.64,-97.05 -50.6,-33.74 -105.5,-63.27 -160.38,-88.59 595.14,-33.77 1177.54,-278.47 1612.3,-679.27 105.5,-97.05 143.52,-185.64 118.18,-265.8 -21.07,-71.73 -88.64,-113.93 -160.4,-147.68 -88.62,-42.2 -177.26,-84.38 -270.09,-118.15 291.25,-37.96 599.36,-84.38 894.8,-189.85 282.77,-101.26 671.04,-303.78 898.98,-679.27 46.42,-75.95 54.87,-135.01 25.34,-181.42 -38.01,-59.06 -113.99,-59.06 -173.08,-54.85 -194.12,12.67 -392.54,33.74 -586.66,54.85 299.62,-109.69 612,-232.03 911.66,-392.38 498.04,-270.01 869.43,-599.09 1114.26,-983.03 21.07,-33.74 46.42,-71.73 50.6,-118.15 -16.86,-46.42 -29.53,-101.26 -75.95,-126.55 -46.42,-25.32 -97.05,-12.67 -143.46,4.19 -392.54,130.82 -755.52,295.36 -1139.6,468.32 -97.1,46.42 -198.39,88.62 -295.44,135.03 -1042.5,464.08 -2106.13,881.77 -3127.51,1286.82 -620.49,244.7 -1261.97,497.85 -1890.86,759.43 46.42,-63.3 92.8,-135.01 109.69,-219.41 16.86,-97.02 -12.67,-189.85 -75.97,-240.48 -71.76,-54.85 -164.56,-50.63 -244.81,-37.96zm205.26 8869.92c-36.15,-61.3 -72.83,-122.06 -110.46,-182.63 -21.07,-33.88 -10.67,-78.49 23.21,-99.56 33.88,-21.07 78.49,-10.67 99.56,23.21 38.32,61.66 75.54,123.35 112.15,185.42 35,59.33 71.27,122.28 108.73,188.37 19.68,34.68 7.5,78.77 -27.18,98.44 -34.68,19.68 -78.77,7.5 -98.44,-27.18 -34.26,-60.46 -69.84,-122.09 -107.58,-186.08zm-922.79 1309.92c-16.61,-153.37 -39.57,-306.36 -69.38,-458.96 -29.89,-153.12 -66.29,-304.09 -109.61,-452.61 -11.08,-38.26 10.95,-78.3 49.21,-89.38 38.26,-11.08 78.3,10.95 89.38,49.21 45.27,155.26 82.79,310.27 113,465.09 30.32,155.34 53.89,312.52 71.07,471.39 4.21,39.66 -24.55,75.26 -64.21,79.48 -39.66,4.21 -75.26,-24.55 -79.48,-64.21zm-1659.92 -541.97c45.46,-90.92 92.48,-178.52 140.97,-263.91 49.7,-87.47 100.82,-172.69 153.37,-256.74 21.07,-33.88 65.68,-44.28 99.56,-23.21 33.88,21.07 44.28,65.68 23.21,99.56 -52.87,84.57 -103.15,168.29 -150.52,251.65 -48.52,85.42 -94.47,170.94 -137.58,257.12 -17.79,35.61 -61.14,50.06 -96.75,32.27 -35.61,-17.79 -50.06,-61.14 -32.27,-96.75zm-1299.57 -493.45c98.33,-145.32 206.77,-284.76 323.49,-419.17 116.26,-133.86 240.32,-262.1 370.48,-385.81 28.87,-27.48 74.63,-26.33 102.11,2.55 27.48,28.87 26.33,74.63 -2.55,102.11 -127.26,120.91 -248.15,245.87 -360.85,375.63 -112.21,129.23 -217,264.07 -312.76,405.59 -22.33,33.12 -67.3,41.85 -100.41,19.51 -33.12,-22.33 -41.85,-67.3 -19.51,-100.41zm-1050.66 -4569.12c-269.33,81.28 -553.27,121.13 -831.99,116.72 -39.82,-0.6 -71.62,-33.44 -71.02,-73.26 0.6,-39.82 33.44,-71.62 73.26,-71.02 263.25,4.16 532.34,-33.74 788.42,-111.03 249.46,-75.29 486.08,-187.99 692.27,-335.56 32.49,-23.1 77.62,-15.52 100.71,16.97 23.1,32.49 15.52,77.62 -16.97,100.71 -219.38,157.01 -470.48,276.72 -734.69,356.47zm-1407.92 -2576.51l0 0zm-240.07 -102.06c-94.8,-26.88 -193.96,-42.04 -293.22,-48.36 -203.48,-12.29 -411.09,17.3 -602.45,87.17 -182.63,66.7 -350.34,170.12 -485.1,308.74 -124.52,128.49 -218.67,286.54 -273.54,456.01 -53.48,165.11 -69.62,341.06 -40.34,510.93 6.71,39.36 -19.79,76.74 -59.14,83.45 -39.36,6.71 -76.74,-19.79 -83.45,-59.14 -33.31,-193.05 -15.08,-392.54 45.43,-579.35 61.69,-190.48 167.52,-368.13 307.53,-512.6 150.41,-154.71 336.85,-269.88 539.4,-343.82 209.97,-76.66 437.56,-109.14 660.69,-95.62 109.01,6.92 218.29,23.67 323.22,53.42 95.98,27.2 188.62,65.38 274.56,116.86 41.05,24.14 83.17,52.77 125.04,81.2 47.32,32.16 94.39,64.15 142.86,90.56 119.49,62.21 252.69,88.59 387.8,86.67 150.69,-2.11 303.73,-39.52 443.03,-101.86 36.37,-16.23 79.09,0.11 95.32,36.48 16.23,36.37 -0.11,79.09 -36.48,95.32 -156.3,69.98 -329.02,111.94 -500.18,114.34 -157.61,2.22 -314.08,-29.09 -455.76,-102.82l-2.76 -1.42c-53.94,-29.39 -104.22,-63.58 -154.74,-97.9 -37.58,-25.53 -75.43,-51.23 -117.93,-76.47 -74.33,-44.56 -155.31,-77.83 -239.8,-101.78zm-770.14 692.63c-16.91,37.77 -38.97,73.51 -65.49,105.15 -25.62,35.09 -57.12,65.19 -92.18,89.14 -36.76,25.1 -77.7,43.68 -119.95,54.22 -48.58,12.12 -101.34,7.58 -148.31,-10.54 -46.58,-17.98 -88.37,-49.76 -115.74,-92.31l-1.15 -1.97c-27.56,-45.87 -35.85,-99.59 -28.46,-151.18 7.33,-51.48 30.62,-101.97 65.87,-140.56 30.08,-35.06 68.56,-60.92 111.22,-78.14 44.31,-17.9 93.11,-26.49 141.25,-26.49 44.5,0 87.55,7.36 129.18,18.36 36.15,9.55 71.46,22.22 105.75,35.03 33.77,9.47 56.51,42.5 52.16,78.41 -5.06,40.67 -16.69,81.64 -34.16,120.88z"/>
  <path class="fil2" d="M4724.51 6303.18c22.41,-15.3 42.37,-34.46 58.16,-56.57l3.69 -4.76c18.88,-22.36 34.24,-46.88 45.46,-72.14 3.56,-8.27 6.73,-16.39 9.52,-24.63 -12.59,-4.11 -25.34,-7.96 -38.26,-11.39 -30.1,-7.96 -60.98,-13.27 -92.39,-13.27 -30.84,0 -61.14,5.12 -87.5,15.76 -22.03,8.89 -41.41,21.73 -55.72,38.64l-2 2.27c-16.01,17.32 -26.63,40.37 -30,64.04 -2.82,19.76 -0.49,39.27 8.21,54.9 10.26,15.87 26.96,28.19 46.06,35.55 19.9,7.69 41.71,9.74 61.17,4.9 25.84,-6.46 50.99,-17.87 73.59,-33.31z"/>
 </g>
</svg>
