<svg width="263" height="218" viewBox="0 0 263 218" fill="none" xmlns="http://www.w3.org/2000/svg">
<path d="M261.25 20.4795C260.609 20.1299 259.91 20.3047 259.269 20.5377C253.848 22.344 248.835 24.6163 243.531 27.0052C242.19 27.6461 240.791 28.2288 239.451 28.8697C225.054 35.2789 210.365 41.0472 196.26 46.6407C187.691 50.0201 178.832 53.5161 170.147 57.1286C170.788 56.2546 171.429 55.2641 171.662 54.0987C171.895 52.7586 171.487 51.4768 170.613 50.7776C169.622 50.0202 168.34 50.0784 167.232 50.2532C165.95 50.428 164.668 50.7193 163.444 51.0107H163.502L164.143 50.7193C166.999 49.4958 170.088 47.8061 171.487 44.8928C172.303 43.0865 172.245 40.5229 170.497 39.3575C168.981 38.3088 167.058 38.7749 165.134 39.4158L161.812 40.5229C163.327 39.7071 164.843 38.8331 166.183 37.7844C168.573 35.9199 170.088 33.5892 170.438 31.2003C170.613 29.9185 170.38 28.2288 169.098 27.4131C167.99 26.7139 166.591 27.0052 165.367 27.3548C164.668 27.5296 163.968 27.7627 163.327 27.9957C164.493 27.2383 165.6 26.4808 166.591 25.5486C169.272 23.1597 170.846 20.3047 171.021 17.5079C171.079 16.1678 170.73 14.5364 169.389 14.012C168.398 13.6041 167.291 14.012 166.242 14.4781C167.349 13.3711 168.34 12.264 169.272 11.157C170.963 9.11768 172.77 6.61226 172.77 3.75724C172.77 2.3006 172.187 0.610892 170.73 0.144767C169.622 -0.263092 168.398 0.261301 167.291 0.843957C163.269 2.94152 159.422 5.50521 156.158 7.7193C145.083 15.3521 135.174 26.073 127.422 38.7749C119.903 51.1272 114.482 64.7614 110.111 76.4728C103.291 75.7153 97.9867 73.1516 92.9157 70.7045C85.9212 67.325 78.6935 63.7708 67.5606 65.2275C59.1089 66.3345 51.4732 73.0351 48.9086 81.4836C48.6754 82.2993 48.4423 83.115 48.2674 83.8725C47.8011 85.8535 47.2765 87.9511 46.1108 89.5825C44.4787 91.9132 41.9723 92.6706 38.7665 93.6611C37.5425 94.0107 36.2601 94.4186 34.9195 94.943C21.5717 99.9538 10.5553 105.023 0.121831 113.297C0.00525594 113.413 -0.0530319 113.588 0.0635433 113.704C0.180119 113.821 0.354982 113.879 0.471557 113.763C12.712 105.897 26.1181 100.362 40.3986 97.3319C46.169 96.1083 52.1144 95.4091 56.2528 98.4972C61.0907 102.168 66.2783 104.732 70.883 105.722C76.1872 110.15 82.0742 113.064 88.311 114.287C96.0049 126.465 106.322 136.545 118.912 144.236C113.375 152.102 108.245 160.317 103.582 168.707C101.659 172.145 99.8519 175.583 99.0359 179.37C98.1033 183.682 98.6279 187.702 100.493 190.79C101.717 192.713 103.874 193.82 106.322 193.645C108.945 193.47 110.927 191.14 111.684 188.984C112.209 187.411 112.85 185.896 113.608 184.381C112.442 187.585 111.568 191.081 111.684 194.635C111.859 200.171 114.657 205.065 118.854 207.163C120.835 208.153 122.992 208.386 124.682 207.745C128.121 206.405 129.171 202.327 130.045 199.064C131.094 195.102 132.493 191.14 134.125 187.352C133.6 194.286 133.95 201.278 135.116 208.153C135.582 211.125 136.34 214.096 138.613 215.961C140.77 217.709 143.626 218 146.482 218C146.715 218 146.948 218 147.181 218C149.979 217.942 152.894 217.767 154.992 216.077C157.324 214.213 158.023 211.066 158.431 208.27C159.072 203.841 159.247 199.297 159.072 194.81L160.937 200.054C161.928 202.851 163.094 205.648 165.717 206.755C168.923 208.153 172.537 206.056 174.518 203.55C178.016 199.238 179.123 192.713 177.491 186.07C176.85 183.507 175.859 180.827 174.402 177.855C175.976 179.195 178.132 180.652 180.522 180.593C183.728 180.477 186.059 177.797 187.167 175.291C189.498 170.106 188.624 163.23 184.777 157.345C183.087 154.782 180.872 152.335 177.899 149.654C178.482 149.829 179.065 149.946 179.648 150.004C181.105 150.062 182.795 149.305 183.32 147.79C183.728 146.566 183.261 145.284 182.679 144.119C176.558 131.417 165.717 120.813 152.835 114.928C154.584 114.52 156.216 113.297 157.149 111.549C158.198 109.684 158.548 107.295 158.256 104.207C158.14 103.275 158.023 102.284 157.906 101.352C157.848 101.061 157.79 100.711 157.79 100.42C158.431 101.119 159.13 101.585 159.888 101.877C161.462 102.459 163.094 102.226 164.201 101.877C165.542 101.469 166.824 100.711 168.048 100.012C169.156 99.3712 170.205 98.672 170.555 97.4484C170.788 96.5161 170.496 95.4674 169.68 94.3603C169.622 94.2438 169.506 94.1272 169.447 94.0107C173.644 95.4091 178.598 94.6516 181.979 91.9714C183.203 90.9809 183.844 89.9904 184.019 88.9416C184.136 88.0676 183.903 87.1936 183.261 86.2614C186.001 87.0771 189.207 86.9606 192.296 85.9118C196.318 84.5134 199.757 81.8915 203.021 79.3278C203.487 78.9782 204.828 77.9294 204.478 76.6476C204.303 76.0649 203.779 75.657 203.254 75.3074C202.555 74.8413 201.797 74.4335 201.039 74.0839C209.258 73.6177 217.301 70.2383 223.305 64.7031C224.762 63.363 225.287 62.1394 224.937 61.0324C224.646 60.0418 223.713 59.4592 222.722 58.9931C221.498 58.4104 220.274 57.8278 218.992 57.3616C223.014 56.8372 227.269 56.1963 231.349 54.7397C235.254 53.3413 240.616 50.5445 243.764 45.3589C244.405 44.3101 244.522 43.4944 244.114 42.8535C243.589 42.0378 242.54 42.0378 241.724 42.096C239.043 42.2708 236.303 42.5621 233.622 42.8535C237.76 41.3386 242.074 39.6489 246.212 37.4348C253.09 33.7058 258.219 29.1611 261.6 23.8589C261.891 23.3928 262.241 22.8684 262.299 22.2274C262.066 21.5865 261.891 20.8291 261.25 20.4795Z" fill="#629576"/>
<path d="M112.092 76.8224C112.966 76.8806 113.841 76.8806 114.715 76.8806C129.345 76.6476 143.159 69.0731 156.507 63.1882C160.238 61.5568 164.026 59.9253 167.757 58.3522" stroke="#19282C" stroke-width="2" stroke-miterlimit="10" stroke-linecap="round" stroke-linejoin="round"/>
<path d="M111.51 107.703C105.565 111.957 97.8704 114.171 90.4678 114.054" stroke="#19282C" stroke-width="2" stroke-miterlimit="10" stroke-linecap="round" stroke-linejoin="round"/>
<path d="M137.622 101.119C137.913 104.615 138.554 108.111 139.487 111.49C139.837 112.714 140.478 114.112 141.702 114.229C142.926 114.345 143.8 113.122 144.325 111.956C145.433 109.451 146.132 106.771 146.307 104.032" stroke="#19282C" stroke-width="2" stroke-miterlimit="10" stroke-linecap="round" stroke-linejoin="round"/>
<path d="M145.665 108.169C145.84 109.102 146.073 109.975 146.423 110.791C147.122 112.423 148.405 113.879 150.037 114.462" stroke="#19282C" stroke-width="2" stroke-miterlimit="10" stroke-linecap="round" stroke-linejoin="round"/>
<path d="M112.442 86.0866C121.535 87.1354 130.744 84.6299 139.021 80.7261C147.298 76.8223 154.876 71.5784 162.686 66.8589C173.586 60.2749 185.068 54.6231 196.959 50.0201" stroke="#19282C" stroke-width="2" stroke-miterlimit="10" stroke-linecap="round" stroke-linejoin="round"/>
<path d="M68.0273 84.2221C67.0947 83.8725 66.1038 83.5229 65.0546 83.5229C64.0054 83.5229 62.9562 83.8725 62.315 84.6299C61.6155 85.3874 61.3824 86.611 61.907 87.485C62.4316 88.3007 63.5391 88.7085 64.4717 88.4755C65.4043 88.2424 66.2786 87.6597 66.8615 86.844C67.5027 86.0866 67.9107 85.1543 68.0273 84.2221Z" stroke="#19282C" stroke-width="2" stroke-miterlimit="10" stroke-linecap="round" stroke-linejoin="round"/>
<path d="M54.7955 94.7682C53.9212 89.6991 55.7864 84.2804 59.4002 80.5514C63.4221 76.4145 69.4257 74.4335 75.1962 74.7831C77.9357 74.9579 80.6752 75.5988 83.0067 76.9972C84.289 77.7546 85.4548 78.6869 86.7371 79.386C90.5258 81.3671 95.1888 80.9592 99.0941 79.2112" stroke="#19282C" stroke-width="2" stroke-miterlimit="10" stroke-linecap="round" stroke-linejoin="round"/>
<path d="M120.252 145.226C123.691 149.13 128.588 152.16 133.542 153.442" stroke="#19282C" stroke-width="2" stroke-miterlimit="10" stroke-linecap="round" stroke-linejoin="round"/>
<path d="M117.28 177.097C119.961 173.135 123.167 169.523 126.723 166.144" stroke="#19282C" stroke-width="2" stroke-miterlimit="10" stroke-linecap="round" stroke-linejoin="round"/>
<path d="M135.29 183.798C136.514 181.351 137.855 179.02 139.312 176.69" stroke="#19282C" stroke-width="2" stroke-miterlimit="10" stroke-linecap="round" stroke-linejoin="round"/>
<path d="M158.315 190.732C157.848 186.42 157.032 182.167 155.808 177.971" stroke="#19282C" stroke-width="2" stroke-miterlimit="10" stroke-linecap="round" stroke-linejoin="round"/>
<path d="M172.42 174.825C171.429 173.077 170.438 171.387 169.389 169.698" stroke="#19282C" stroke-width="2" stroke-miterlimit="10" stroke-linecap="round" stroke-linejoin="round"/>
<path d="M174.868 147.499C173.644 146.508 172.362 145.518 171.138 144.585" stroke="#19282C" stroke-width="2" stroke-miterlimit="10" stroke-linecap="round" stroke-linejoin="round"/>
</svg>
