<svg width="503" height="503" viewBox="0 0 503 503" fill="none" xmlns="http://www.w3.org/2000/svg">
<path d="M342.166 76.6829C342.153 76.6502 342.13 76.6222 342.101 76.6025C342.072 76.5828 342.038 76.5722 342.002 76.5722C341.967 76.5722 341.933 76.5828 341.904 76.6025C341.874 76.6222 341.852 76.6502 341.839 76.6829C341.839 78.2422 339.575 79.1979 340.204 80.9584C340.481 81.7129 341.512 82.2411 342.09 81.4866C342.111 81.4494 342.123 81.408 342.125 81.3656C342.127 81.3231 342.119 81.2808 342.102 81.2419C342.085 81.203 342.059 81.1685 342.026 81.1412C341.994 81.1138 341.956 81.0943 341.914 81.0842H341.638C340.43 81.0842 340.43 80.2291 341.789 78.5692C341.994 78.3061 342.136 77.9984 342.201 77.6709C342.267 77.3433 342.255 77.0049 342.166 76.6829ZM347.498 74.1428C347.648 74.5452 348.302 74.4194 348.378 74.017C348.377 73.1681 348.267 72.3229 348.051 71.502C348.051 71.4086 348.014 71.3191 347.948 71.253C347.882 71.187 347.792 71.1499 347.699 71.1499C347.605 71.1499 347.516 71.187 347.45 71.253C347.384 71.3191 347.347 71.4086 347.347 71.502C347.182 72.3815 347.234 73.2878 347.498 74.1428ZM336.029 72.2062C336.029 72.9859 336.029 74.52 336.809 74.9979C336.846 75.0184 336.887 75.0301 336.93 75.0321C336.972 75.034 337.015 75.0262 337.053 75.0092C337.092 74.9921 337.127 74.9664 337.154 74.9339C337.182 74.9014 337.201 74.8631 337.211 74.8218C337.087 73.9714 336.902 73.1309 336.658 72.3068C336.608 71.829 336.029 71.8038 336.029 72.2062ZM333.615 69.1631C333.568 69.2398 333.554 69.3319 333.575 69.4191C333.596 69.5064 333.651 69.5817 333.728 69.6283C333.805 69.675 333.897 69.6893 333.984 69.6681C334.071 69.6469 334.147 69.5919 334.193 69.5152C334.571 69.0122 336.708 67.5283 336.96 67.0002C336.993 66.9605 337.014 66.9125 337.021 66.8615C337.028 66.8105 337.02 66.7585 336.999 66.7115C336.978 66.6645 336.945 66.6242 336.902 66.5952C336.86 66.5662 336.81 66.5497 336.759 66.5475C335.375 66.5223 334.168 68.0816 333.615 69.1631ZM347.749 65.8684C349.007 66.0193 349.661 67.0253 350.264 67.981C350.306 68.0541 350.371 68.1111 350.449 68.1428C350.527 68.1745 350.614 68.1791 350.695 68.156C350.776 68.1328 350.847 68.0832 350.896 68.015C350.946 67.9468 350.971 67.864 350.968 67.7798C350.968 66.1451 349.183 65.1391 347.699 65.1139C347.246 65.0888 347.271 65.8181 347.749 65.8684ZM372.899 150.901C378.306 150.574 383.613 149.039 389.02 148.562C389.448 148.562 389.448 147.832 389.02 147.883C383.563 148.364 378.159 149.332 372.874 150.775L372.899 150.901ZM346.869 151.982C347.271 151.982 347.095 151.303 346.693 151.353C341.084 152.234 335.451 153.24 329.867 154.296C329.717 154.296 329.867 154.572 329.867 154.572C335.576 153.793 341.26 152.963 346.869 151.982ZM263.924 295.337L223.835 267.421L216.24 280.071L269.633 315.382L314.35 232.613L301.473 226.577L263.924 295.337Z" fill="black"/>
<path d="M331.804 196.373C331.125 194.663 330.798 194.889 328.987 194.512C325.995 193.858 322.977 193.279 319.959 192.676C310.603 190.79 301.423 187.646 292.294 185.131C283.062 182.655 274.04 179.459 265.308 175.574C262.793 174.467 260.479 173.386 258.165 172.078C256.782 171.273 253.915 168.758 252.38 168.859C251.5 168.859 251.928 168.859 250.922 169.714C249.036 171.474 247.2 173.21 245.213 174.744C237.441 180.798 229.171 186.183 220.49 190.84C207.143 198.932 193.242 206.076 178.892 212.217C178.792 212.245 178.704 212.303 178.641 212.385C178.577 212.467 178.542 212.567 178.54 212.67C177.252 227.603 178.649 242.645 182.665 257.085C186.413 271.646 190.921 286.001 196.17 300.092C205.526 325.669 219.484 349.436 240.132 367.318C261.686 386.004 280.372 389.273 280.549 389.097C288.11 383.341 295.04 376.799 301.222 369.581C315.548 353.601 326.711 335.047 334.118 314.905C338.634 302.357 341.468 289.265 342.543 275.973C343.952 258.368 341.437 240.989 338.393 223.56C337.177 214.288 334.968 205.173 331.804 196.373ZM338.444 296.973C335.038 313.537 328.582 329.322 319.405 343.526C296.292 377.579 280.473 388.117 280.222 388.293C256.867 380.378 236.478 365.534 221.773 345.739C214.827 336.605 208.859 326.768 203.967 316.389C198.575 304.283 193.947 291.851 190.109 279.167C185.933 267.06 182.696 254.649 180.426 242.045C179.324 235.346 178.811 228.563 178.892 221.774C178.892 220.165 179.194 213.173 179.169 213.198C179.42 212.771 197.906 204.874 205.702 200.447C216.29 194.311 227.256 188.627 237.416 181.685C241.866 178.743 246.072 175.446 249.991 171.827C251.4 170.519 251.953 169.84 253.864 170.619C255.197 171.147 263.094 175.649 265.861 176.781C276.972 181.466 288.423 185.3 300.115 188.249C306.227 189.985 312.338 191.972 318.55 193.279C322.485 193.894 326.381 194.734 330.22 195.794C331.653 196.7 334.52 208.143 335.25 211.161C336.608 217.398 337.614 223.736 338.695 229.973C342.493 252.407 343.524 274.615 338.444 297.023V296.973ZM165.11 92.9058C165.072 92.9477 165.047 92.9994 165.037 93.0549C165.027 93.1104 165.033 93.1676 165.054 93.22C165.075 93.2724 165.11 93.3178 165.156 93.3512C165.201 93.3846 165.255 93.4045 165.311 93.4088C165.771 93.351 166.199 93.1416 166.527 92.8137C166.855 92.4859 167.064 92.0581 167.122 91.598C167.122 91.1705 165.588 89.2842 165.336 88.4291C165.321 88.3847 165.292 88.3463 165.254 88.319C165.215 88.2918 165.17 88.2772 165.123 88.2772C165.076 88.2772 165.03 88.2918 164.991 88.319C164.953 88.3463 164.924 88.3847 164.909 88.4291C164.682 89.1585 166.393 91.2208 166.292 91.7741C166.191 92.3274 165.487 92.5286 165.11 92.9058ZM169.738 84.7572C169.498 85.5731 169.396 86.423 169.436 87.2722C169.436 88.0016 170.568 88.0016 170.593 87.2722C170.707 86.4239 170.612 85.5605 170.316 84.7572C170.288 84.7046 170.247 84.6605 170.196 84.6298C170.145 84.599 170.086 84.5828 170.027 84.5828C169.967 84.5828 169.909 84.599 169.858 84.6298C169.807 84.6605 169.765 84.7046 169.738 84.7572ZM159.502 84.6818C159.268 85.5039 159.268 86.3747 159.502 87.1968C159.502 87.7249 160.508 87.6495 160.457 87.1968C160.407 86.7441 160.281 85.6375 160.181 84.8578C160.204 84.7678 160.191 84.6722 160.143 84.592C160.096 84.5118 160.019 84.4536 159.929 84.4303C159.839 84.4069 159.743 84.4203 159.663 84.4675C159.583 84.5147 159.525 84.5917 159.502 84.6818ZM157.364 83.9776C157.766 83.4494 159.879 81.7895 160.181 81.3117C160.232 81.2619 160.266 81.1967 160.276 81.126C160.287 81.0553 160.274 80.983 160.24 80.9202C160.206 80.8574 160.152 80.8076 160.087 80.7783C160.022 80.7491 159.948 80.7421 159.879 80.7584C158.537 81.2519 157.414 82.2055 156.71 83.4494C156.433 83.8518 157.062 84.3297 157.364 83.9776ZM169.235 81.0602C170.149 81.5201 170.995 82.1041 171.75 82.7955C171.799 82.8458 171.862 82.8802 171.931 82.8942C172 82.9082 172.072 82.9012 172.137 82.8742C172.202 82.8471 172.257 82.8012 172.296 82.7423C172.334 82.6835 172.354 82.6144 172.353 82.544C172.353 81.8901 169.838 80.4314 169.159 80.4817C169.098 80.507 169.046 80.5519 169.013 80.6095C168.979 80.667 168.966 80.734 168.974 80.8C168.983 80.866 169.013 80.9272 169.06 80.9743C169.107 81.0214 169.169 81.0516 169.235 81.0602ZM157.515 96.9047H157.288C157.288 98.5143 160.86 101.784 165.613 99.7466C165.839 99.7466 165.613 99.2688 165.437 99.3442C164.039 99.9256 162.482 99.9999 161.035 99.5544C159.589 99.1089 158.343 98.1716 157.515 96.9047ZM61.1651 309.347C52.8404 310.177 44.3146 308.869 36.0151 309.9C36.0151 309.9 35.839 310.051 35.839 310.126C35.1808 316.985 35.3158 323.897 36.2414 330.724C36.2466 330.787 36.2671 330.847 36.3012 330.899C36.3353 330.951 36.3819 330.994 36.4367 331.024C36.4916 331.054 36.553 331.07 36.6155 331.07C36.678 331.071 36.7396 331.055 36.7947 331.026C44.893 331.454 53.3686 331.177 61.492 330.8C61.7184 330.8 61.819 330.297 61.819 330.246C62.0625 323.378 61.9282 316.502 61.4166 309.649C61.42 309.612 61.4162 309.576 61.4054 309.541C61.3947 309.506 61.3771 309.473 61.3537 309.445C61.3303 309.417 61.3016 309.394 61.2692 309.377C61.2368 309.36 61.2014 309.35 61.1651 309.347ZM36.7696 316.615C36.7696 314.502 36.7696 312.39 36.6187 310.252C44.5794 310.661 52.5573 310.602 60.5112 310.076C60.314 312.527 60.2552 314.987 60.3351 317.445C52.4994 316.768 44.6326 316.516 36.7696 316.691V316.615ZM37.2977 330.171C36.9205 325.971 36.8702 321.796 36.8199 317.596C40.5421 317.596 44.3649 317.747 47.9865 317.847C47.684 321.8 47.9123 325.776 48.6655 329.668C44.8665 329.507 41.0607 329.7 37.2977 330.246V330.171ZM49.8727 329.743C49.8727 327.505 49.2943 319.507 48.9673 317.772C52.7147 317.772 60.31 318.401 60.3351 318.401C60.3351 322.224 60.7124 326.071 60.7878 329.844C57.292 330.095 53.5949 329.919 49.9482 329.819L49.8727 329.743Z" fill="black"/>
<path d="M488.715 326.196C488.196 322.734 486.489 319.56 483.886 317.218C480.742 314.829 476.567 315.231 472.87 315.357C467.337 315.533 455.944 316.614 455.944 316.589C454.033 311.232 452.348 305.749 450.135 300.543C448.614 296.111 445.443 292.436 441.282 290.282C437.208 288.522 418.094 289.88 409.241 290.685C415.906 268.653 416.258 238.197 416.258 232.311C417.181 231.69 417.975 230.896 418.597 229.972C420.584 226.678 419.2 221.598 418.899 218.051C418.043 208.419 417.515 198.636 416.157 189.053C418.727 186.439 420.973 183.526 422.847 180.377C428.933 170.141 428.959 158.748 426.142 147.405C423.325 136.062 415.378 127.285 406.449 119.589C397.58 111.535 386.562 106.231 374.735 104.323C373.519 102.197 372.113 100.185 370.535 98.3122L368.322 99.5949C368.322 96.1996 366.913 81.6629 366.913 81.6629C368.976 81.1096 373.05 75.1491 373.679 70.773C373.98 66.5093 373.234 62.2366 371.507 58.3267C369.78 54.4168 367.124 50.9882 363.77 48.3392C354.464 40.7942 336.105 44.3403 332.056 47.4086C330.943 48.2866 329.658 48.9196 328.284 49.2663C326.91 49.6131 325.479 49.6656 324.083 49.4206C324.083 49.4206 327.453 52.7907 325.391 53.4195C323.329 54.0482 321.92 50.6278 321.92 50.6278C321.442 57.4686 324.184 59.1788 324.184 59.1788C333.212 68.8867 340.028 61.1154 340.028 61.1154C340.028 61.1154 340.959 58.0974 350.667 60.2854C351.917 60.4638 353.115 60.9046 354.183 61.579C355.251 62.2533 356.164 63.1459 356.862 64.1981C357.56 65.2504 358.028 66.4384 358.235 67.6843C358.441 68.9301 358.382 70.2056 358.061 71.4269L359.293 71.9299C359.756 71.2564 360.278 70.6252 360.852 70.0436C366.335 66.246 367.743 72.0053 367.743 72.0053C368.85 76.6832 363.091 78.0413 363.091 78.0413C363.242 84.53 362.06 85.5863 362.06 85.5863C357.382 91.1948 352.628 85.1085 352.628 85.1085C351.578 83.8987 350.255 82.9572 348.767 82.3623C347.28 81.7674 345.672 81.5362 344.077 81.6881C338.142 81.9396 339.047 83.8258 336.532 85.6618C334.948 86.8187 333.338 85.5109 332.357 84.4294C332.357 82.2917 331.502 73.9167 331.024 71.8544V64.5358C329.263 64.0211 327.656 63.0795 326.347 61.7944C323.832 69.3394 329.188 71.6532 330.672 72.1814C330.848 74.47 330.018 91.899 333.187 98.438C334.035 100.256 335.319 101.837 336.925 103.039C338.531 104.241 340.409 105.028 342.392 105.329C342.116 106.813 341.839 109.278 341.789 109.957C335.602 110.862 330.597 114.836 325.793 118.583C320.03 122.987 314.684 127.912 309.823 133.296C301.066 142.799 295.37 154.717 293.475 167.5L284.849 164.985C284.974 164.432 285.033 163.866 285.025 163.3C285.017 162.288 284.705 161.302 284.128 160.47C283.551 159.639 282.736 159.001 281.791 158.639C280.846 158.278 279.813 158.21 278.829 158.445C277.844 158.68 276.954 159.206 276.273 159.955C275.777 160.643 275.418 161.42 275.217 162.244C275.217 162.244 260.78 155.855 253.562 152.762C252.03 151.77 250.167 151.426 248.382 151.806C245.619 153.285 243.168 155.283 241.163 157.691V157.54C238.648 154.447 233.115 154.699 232.311 159.2C232.154 160.514 232.363 161.846 232.914 163.048C231.657 163.979 230.399 164.96 228.941 165.915C225.42 157.214 222.075 148.134 216.366 140.765C211.621 134.456 205.899 128.946 199.414 124.443C190.52 118.106 179.799 114.847 168.882 115.163L168.228 113.578C168.228 112.547 168.027 111.516 167.902 110.51C176.075 111.189 180.326 98.8907 180.326 98.8907C180.614 101.015 180.398 103.177 179.697 105.203C179.697 105.203 187.996 93.2822 183.092 73.4892C178.188 53.6961 160.457 57.8459 160.457 57.8459C139.407 45.6481 128.466 67.5035 128.466 67.5035C115.64 98.5386 138.526 111.516 138.526 111.516C136.313 109.856 137.017 106.134 137.017 106.134C138.165 107.756 139.668 109.095 141.411 110.049C143.154 111.004 145.092 111.548 147.077 111.642C147.077 112.421 146.801 113.276 146.725 114.157L146.197 116.018C124.291 123.739 105.001 137.949 97.4815 160.735C93.9102 171.524 93.6839 182.741 99.1163 192.977C103.68 201.285 111.205 207.57 120.192 210.582C120.083 212.055 120.315 213.533 120.869 214.903C121.422 216.272 122.284 217.496 123.386 218.479C121.676 219.259 117.275 222.427 114.76 235.002C113.728 240.183 111.817 249.237 109.73 259.071C98.739 250.47 82.5927 237.341 82.3412 237.543C58.7505 256.531 12.7009 296.57 12.7009 296.62C12.6508 296.661 12.614 296.716 12.5951 296.778C12.5763 296.84 12.5764 296.906 12.5952 296.968C12.6141 297.03 12.6509 297.085 12.7011 297.126C12.7512 297.167 12.8124 297.192 12.8769 297.198C16.6746 297.525 20.4219 297.752 24.3202 297.877C24.3202 321.242 26.2819 368.297 26.3825 368.297H17.6051C17.4293 372.243 17.5807 376.197 18.0578 380.118C35.4113 380.118 100.776 379.665 124.04 379.213C124.794 390.304 125.725 403.633 125.725 403.633C124.191 404.237 117.602 408.16 115.539 409.066C112.773 410.273 110.509 411.757 110.861 415.102C110.979 415.234 111.125 415.337 111.289 415.403C120.354 416.083 129.466 415.729 138.451 414.347C138.65 414.282 138.819 414.148 138.929 413.97C139.646 411.429 139.646 408.739 138.929 406.198L150.171 359.42C151.831 352.805 157.942 326.423 159.451 319.909C165.789 319.87 172.119 319.484 178.414 318.752C180.929 326.448 187.971 355.873 190.788 362.161C193.605 368.448 193.907 371.039 193.957 371.064C201.125 373.076 207.06 375.616 215.661 368.549C215.738 368.472 215.842 368.429 215.951 368.429C216.059 368.429 216.163 368.472 216.24 368.549C216.317 368.626 216.36 368.73 216.36 368.838C216.36 368.947 216.317 369.051 216.24 369.127C211.059 374.686 200.119 375.415 193.881 371.24L204.822 403.407C204.135 406.623 204.135 409.949 204.822 413.165C204.822 413.366 221.27 413.165 229.343 412.939C229.594 412.939 229.796 412.436 229.796 412.385C229.869 411.135 229.565 409.891 228.924 408.815C228.283 407.739 227.334 406.88 226.199 406.349C224.741 405.519 218.176 402.376 216.416 401.495V364.173C219.556 368.307 223.012 372.192 226.753 375.792C235.353 383.605 244.609 390.664 254.418 396.893C263.22 402.803 272.5 408.663 282.736 411.706C282.938 411.706 309.798 394.453 324.058 373.202V382.884C325.192 384.053 326.602 384.918 328.157 385.399C328.359 387.486 328.678 389.56 329.113 391.612C325.441 394.126 319.782 397.949 318.827 402.527C318.707 402.947 318.677 403.388 318.737 403.821C318.798 404.254 318.948 404.67 319.179 405.042C317.871 411.304 331.98 410.072 334.998 409.669C338.922 409.141 352.603 408.361 350.289 401.345C350.289 401.345 351.019 392.542 348.554 391.008C348.78 388.977 348.78 386.927 348.554 384.896C352.075 384.142 354.54 383.387 354.54 383.387L357.658 305.422C363.468 335.351 387.109 385.701 387.109 385.701C388.925 385.966 390.757 386.1 392.592 386.104C393.302 387.841 394.143 389.523 395.107 391.134C393.17 392.97 383.261 402.426 388.593 405.67C389.75 411.857 399.483 408.412 403.079 406.878C405.343 405.922 419.075 399.333 414.724 395.736C414.724 395.736 411.479 387.914 410.373 387.487C410.156 385.429 409.701 383.403 409.015 381.451C410.313 380.636 411.519 379.684 412.611 378.609C412.611 378.609 410.096 364.097 407.581 349.51C420.761 349.89 433.949 349.108 446.991 347.171C447.167 347.171 447.293 346.92 447.318 346.744C447.318 343.374 447.544 339.803 450.16 337.338C452.501 335.43 455.302 334.173 458.283 333.691C466.231 331.981 469.651 337.313 471.663 344.028C471.663 344.204 484.112 343.449 490.148 343.676C490.475 343.676 490.601 342.971 490.601 342.896C490.566 337.278 489.934 331.68 488.715 326.196ZM342.04 59.5812C338.67 61.5178 334.369 58.6255 333.338 55.3309C333.338 55.1548 333.539 55.0291 333.64 55.2051C334.445 56.6638 337.664 60.386 341.839 58.8519C342.04 58.7261 342.317 59.4052 342.04 59.5812ZM402.073 117.175C410.876 123.865 420.131 132.416 423.954 143.029C427.776 153.642 428.833 166.846 423.576 177.334C418.491 186.813 410.457 194.379 400.69 198.887C389.508 204.03 377.335 206.657 365.027 206.583C364.963 206.558 364.891 206.558 364.826 206.583C362.475 201.81 359.715 197.249 356.577 192.952C370.69 183.942 385.272 175.689 400.262 168.229C400.321 168.194 400.368 168.141 400.395 168.078C400.422 168.014 400.428 167.944 400.413 167.877C398.878 162.7 397.859 157.385 397.37 152.007C397.37 151.781 396.993 151.756 396.993 152.007C397.11 156.306 397.683 160.581 398.703 164.759C399.206 166.921 400.413 167.274 398.552 168.355C394.931 170.241 371.315 182.791 363.342 187.67C362.99 183.395 361.808 163.526 361.858 163.476C365.304 157.717 378.357 133.975 381.978 128.266C382.006 128.238 382.029 128.205 382.044 128.168C382.059 128.131 382.067 128.092 382.067 128.052C382.067 128.012 382.059 127.973 382.044 127.936C382.029 127.9 382.006 127.866 381.978 127.838C380.453 125.353 378.619 123.072 376.521 121.048C379.323 118.864 382.36 117 385.575 115.49C385.851 115.49 386.178 115.263 385.977 114.962C383.919 111.65 381.507 108.572 378.784 105.782C387.23 107.925 395.136 111.805 401.998 117.175H402.073ZM350.767 204.546C346.014 208.796 345.737 206.357 345.611 205.577C347.375 204.639 349.008 203.472 350.465 202.106C350.465 202.106 350.314 201.704 350.189 201.804C349.158 202.509 343.398 207.363 343.398 204.47C345.27 202.148 347.434 200.077 349.837 198.309C349.485 197.63 348.227 198.309 347.9 194.109C349.485 195.309 351.42 195.954 353.408 195.945C354.6 196.006 355.783 195.708 356.803 195.089C357.72 197 358.762 198.848 359.922 200.622C358.338 202.145 356.658 203.565 354.892 204.873C353.307 205.979 349.862 208.721 347.85 207.388C349.01 206.622 350.119 205.782 351.17 204.873C351.22 204.722 350.843 204.42 350.692 204.546H350.767ZM378.13 105.631C379.061 107.165 384.116 113.402 385.399 115.163C381.921 116.292 378.8 118.313 376.345 121.023L381.626 127.939C374.936 139.432 367.064 150.574 361.833 162.923C363.663 143.536 367.645 124.413 373.704 105.908L374.609 104.952L378.13 105.631ZM370.409 98.8907C371.44 100.852 372.924 102.512 374.006 104.524C370.636 108.045 366.913 111.114 363.367 114.584C362.037 111.528 360.349 108.641 358.337 105.983C362.626 104.121 366.678 101.757 370.409 98.941V98.8907ZM356.376 104.499C364.298 102.764 366.285 92.6535 366.788 86.4666C366.788 87.7241 367.291 96.5266 367.668 99.6955C367.654 99.7533 367.654 99.8137 367.668 99.8715L357.885 105.631C356.801 107.617 355.876 109.686 355.118 111.818C354.27 109.577 353.262 107.4 352.1 105.304C353.534 105.128 354.917 104.876 356.376 104.549V104.499ZM354.791 112.95C354.781 113.002 354.782 113.057 354.793 113.109C354.804 113.162 354.825 113.212 354.856 113.256C354.886 113.301 354.925 113.338 354.97 113.368C355.015 113.397 355.065 113.417 355.118 113.427C355.171 113.437 355.225 113.437 355.278 113.426C355.331 113.415 355.38 113.393 355.425 113.363C355.469 113.332 355.507 113.294 355.536 113.249C355.566 113.204 355.586 113.153 355.596 113.1C356.35 110.812 357.457 108.599 358.111 106.31C359.508 109.379 361.193 112.31 363.141 115.062C366.614 112.565 369.886 109.798 372.924 106.788C364.65 125.072 361.531 151.228 361.054 159.829C359.042 152.284 350.063 121.551 346.743 114.081C347.588 114.609 348.543 114.936 349.535 115.037C350.164 113.956 351.346 107.316 352.05 105.48C352.1 105.857 354.213 111.516 354.791 113V112.95ZM343.147 91.1696C343.692 91.3307 344.266 91.3757 344.83 91.3019C345.394 91.228 345.936 91.0368 346.422 90.7407C346.907 90.4445 347.325 90.05 347.649 89.5824C347.973 89.1148 348.196 88.5846 348.302 88.0259C348.302 87.6989 348.982 87.875 348.931 88.2019C348.202 92.8044 343.901 92.4523 343.071 91.3457C343.021 91.3205 343.071 91.2199 343.147 91.2199V91.1696ZM342.996 105.405C345.856 105.818 348.762 105.818 351.622 105.405C350.472 108.283 349.563 111.253 348.906 114.282C348.152 113.779 343.725 111.214 342.367 110.309C342.392 110.258 342.895 107.215 342.996 105.455V105.405ZM342.04 110.661C343.22 111.766 344.519 112.736 345.913 113.553C348.101 121.928 358.488 153.642 360.525 161.338C357.382 156.861 340.607 138.703 336.407 133.321C337.621 130.615 338.663 127.835 339.525 124.996C337.324 124.143 335.039 123.519 332.709 123.135C335.232 119.543 337.239 115.615 338.67 111.466C339.701 111.114 342.04 110.661 342.04 110.661ZM294.029 167.55C296.25 154.986 301.899 143.28 310.351 133.723C314.405 129.164 318.839 124.957 323.605 121.148C327.872 117.197 332.768 113.984 338.092 111.642C335.904 115.389 333.816 119.866 331.427 123.538C331.226 123.865 336.633 124.896 338.796 125.65C338.318 126.455 336.155 132.038 335.526 133.547C335.526 133.723 357.155 157.943 361.104 163.501C360.777 167.374 363.015 187.947 363.04 187.972C360.701 189.406 358.212 191.04 355.973 192.6C355.772 192.6 356.527 193.933 356.753 194.41C355.821 194.875 354.8 195.132 353.76 195.165C354.037 189.808 353.559 183.596 348.982 180.075C346.972 178.63 344.607 177.76 342.141 177.56C338.142 177.057 334.143 176.831 330.144 176.252C328.434 176.001 326.699 175.699 324.988 175.372V175.221C323.599 167.532 323.059 159.714 323.379 151.907C323.379 151.706 323.052 151.63 323.002 151.907C322.074 159.703 322.448 167.598 324.108 175.271C313.872 173.335 303.988 170.417 293.928 167.525L294.029 167.55ZM275.795 162.52C276.033 161.331 276.706 160.273 277.681 159.552C278.444 159.064 279.341 158.829 280.245 158.884C281.149 158.938 282.013 159.278 282.711 159.854C283.477 160.51 284.028 161.382 284.293 162.355C284.557 163.328 284.523 164.358 284.195 165.312C283.843 166.494 281.957 169.99 280.448 167.198C280.538 166.994 280.614 166.784 280.674 166.569C280.92 165.482 281.104 164.382 281.227 163.275C280.926 164.281 280.75 165.362 280.397 166.343C280.319 166.654 280.175 166.945 279.976 167.197C279.776 167.448 279.526 167.654 279.241 167.802C278.436 168.078 277.832 167.45 277.53 166.771C278.016 165.262 278.312 163.699 278.411 162.118C278.266 163.776 277.823 165.395 277.103 166.896C276.6 167.802 275.644 167.902 275.317 166.896C275.255 166.555 275.255 166.206 275.317 165.865C275.352 164.728 275.512 163.597 275.795 162.495V162.52ZM240.132 157.49C240.359 157.717 240.56 157.968 240.786 158.245C240.788 158.283 240.801 158.32 240.823 158.351C240.846 158.382 240.876 158.406 240.912 158.421C241.438 159.093 241.846 159.85 242.119 160.659C242.446 161.665 243.125 164.155 241.038 163.174C240.408 162.283 239.71 161.442 238.95 160.659C238.799 160.659 238.95 160.659 238.95 160.659C239.403 161.464 242.999 166.418 238.95 165.312C238.564 164.145 237.949 163.068 237.139 162.143C237.095 162.112 237.041 162.095 236.987 162.097C236.932 162.099 236.88 162.118 236.837 162.152C236.795 162.186 236.765 162.233 236.751 162.286C236.737 162.339 236.741 162.394 236.762 162.445C237.265 163.602 240.082 167.927 236.762 166.771C234.872 165.655 233.485 163.853 232.889 161.741C232.503 160.796 232.47 159.744 232.796 158.777C233.122 157.809 233.784 156.992 234.663 156.473C235.542 155.954 236.578 155.769 237.582 155.951C238.587 156.133 239.492 156.671 240.132 157.465V157.49ZM142.475 101.858C143.688 101.855 144.888 102.098 146.004 102.574C147.12 103.049 148.127 103.747 148.964 104.625C148.511 101.003 143.028 95.8475 143.028 95.8475C136.615 95.9984 137.998 89.6606 137.998 89.6606C138.288 88.9927 138.734 88.4045 139.3 87.9459C139.865 87.4872 140.533 87.1717 141.246 87.0261C141.959 86.8805 142.697 86.9091 143.397 87.1094C144.097 87.3097 144.738 87.6758 145.267 88.1768C145.267 88.9564 146.625 92.5277 148.586 92.6786C150.548 92.8295 149.844 94.8918 149.844 94.8918C149.844 94.8918 151.303 93.0056 149.844 91.9493C148.385 90.893 148.259 88.1516 148.259 88.1516C156.509 87.3971 162.318 67.5538 162.318 67.5538C164.431 78.5443 176.352 78.7455 176.352 78.7455C176.372 85.2687 175.985 91.7867 175.195 98.2619C174.853 100.223 173.865 102.013 172.388 103.348C170.912 104.683 169.032 105.487 167.046 105.631C167.046 105.631 167.046 112.22 167.399 114.056C164.658 116.421 161.159 117.722 157.54 117.722C153.92 117.722 150.421 116.421 147.681 114.056V111.541C148.848 111.622 150.021 111.572 151.177 111.39C144.135 110.007 142.475 101.858 142.475 101.858ZM146.348 116.571C148.863 121.249 163.123 124.116 168.983 115.615C171.755 115.633 174.522 115.869 177.257 116.32C175.321 136.264 145.82 136.968 138.803 119.891C141.243 118.734 143.783 117.653 146.348 116.571ZM102.185 196.171C88.7293 176.654 98.6887 150.373 114.407 135.333C121.34 128.99 129.311 123.885 137.973 120.243C140.84 129.372 152.233 133.95 161.212 132.818C165.477 132.417 169.478 130.574 172.556 127.593C175.633 124.612 177.602 120.671 178.138 116.42C185.334 117.677 192.188 120.427 198.258 124.493C204.645 128.804 210.3 134.111 215.007 140.212C221.094 147.933 224.539 157.289 228.161 166.368C222.1 170.568 214.982 174.969 207.689 179.094C206.431 178.138 203.564 175.598 202.986 175.07C203.177 167.62 201.591 160.231 198.358 153.516H198.107C203.288 166.318 201.854 177.032 202.08 182.062C188.801 189.204 175.975 194.913 169.385 196.322C169.385 196.322 169.385 195.945 169.184 195.894C158.646 192.398 127.234 181.207 127.184 181.207C127.834 176.998 128.262 172.759 128.466 168.506C128.466 168.506 128.265 168.506 128.265 168.657C127.184 172.807 127.033 177.308 126.354 181.559C126.341 181.636 126.351 181.715 126.382 181.786C126.413 181.857 126.465 181.918 126.53 181.961C140.211 187.871 154.647 192.021 168.832 196.523C169.165 201.319 168.946 206.138 168.178 210.884C145.87 212.921 117.023 217.674 102.185 196.171ZM206.909 179.547C205.501 180.352 204.067 181.131 202.659 181.886C202.81 179.999 202.91 178.013 202.935 175.975C204.132 177.302 205.463 178.499 206.909 179.547ZM169.662 200.094C170.497 200.448 171.395 200.631 172.303 200.631C173.21 200.631 174.108 200.448 174.944 200.094C176.805 199.113 177.735 197.076 179.42 195.844C179.531 197.219 179.157 198.589 178.364 199.717C178.188 199.943 178.364 200.22 178.716 200.195C180.426 200.446 183.972 199.767 185.205 200.773C186.94 202.157 180.753 202.76 179.169 202.961C178.917 202.961 178.993 203.364 179.169 203.389C181.125 203.377 183.068 203.063 184.928 202.458C186.412 206.231 180.15 205.376 178.968 205.803C178.917 205.82 178.873 205.852 178.842 205.895C178.811 205.938 178.795 205.989 178.795 206.042C178.795 206.095 178.811 206.147 178.842 206.19C178.873 206.233 178.917 206.265 178.968 206.281C180.433 206.381 181.906 206.28 183.344 205.979C184.677 209.123 172.378 211.588 169.285 207.413C169.627 204.989 169.754 202.54 169.662 200.094ZM131.258 246.471C131.258 246.32 131.585 246.471 131.56 246.471C130.931 256.028 124.895 294.91 123.059 304.743C123.059 305.02 122.606 304.894 122.657 304.743C123.964 295.036 129.347 256.128 131.258 246.471ZM111.264 310.176C113.892 311.493 116.596 312.652 119.362 313.647C119.362 314.376 119.513 315.382 119.588 316.514C113.351 315.91 107.416 317.142 101.204 316.715C101.204 314.476 101.028 310.352 101.028 310.352C102.713 310.302 107.466 310.201 111.264 310.251V310.176ZM113.1 317.419H119.463C119.689 320.462 119.94 324.637 120.192 329.114C117.96 328.8 115.7 328.724 113.452 328.887C113.573 325.088 113.48 321.284 113.175 317.494L113.1 317.419ZM112.471 328.862C112.194 328.862 104.926 328.862 101.631 329.013C101.631 325.995 101.204 318.35 101.204 317.545C104.922 317.794 108.652 317.794 112.37 317.545C111.924 321.331 111.958 325.159 112.471 328.938V328.862ZM14.6877 296.57C37.3227 276.802 59.2535 258.04 82.3915 238.725C90.9677 246.27 100.424 253.01 109.629 259.876C106.787 273.08 103.668 287.541 101.858 295.865C78.6945 296.268 28.8472 296.771 14.6877 296.57ZM18.9632 379.389C19.1233 375.871 18.9041 372.346 18.3093 368.876C26.7346 369.882 102.461 369.027 123.235 368.7C123.386 371.215 123.638 374.61 123.889 378.332C100.6 378.332 36.1155 378.936 18.9632 379.389ZM76.5064 345.537C81.1085 345.176 85.7292 345.118 90.3389 345.361C90.3389 345.361 90.3389 364.173 90.7413 368.247L76.9843 368.473C76.7831 360.602 76.9843 353.358 76.5064 345.537ZM138.225 413.442C124.241 415.831 115.967 414.448 111.566 414.724C111.389 413.593 113.251 411.002 114.081 410.373C114.91 409.745 125.75 404.564 125.75 404.564C129.145 410.725 136.162 407.758 138.325 406.676C138.893 408.93 138.893 411.289 138.325 413.542L138.225 413.442ZM147.052 369.253C138.401 373.051 129.824 370.662 122.958 364.5L123.16 367.618L91.6719 368.121C92.0438 360.269 91.8168 352.399 90.9928 344.581C90.9928 344.581 80.3292 343.147 75.5759 344.405C75.425 344.405 75.7016 360.501 75.9028 368.373L28.1178 368.197C28.1178 368.197 27.2627 321.141 25.9298 297.777C36.6437 298.104 79.8765 297.274 101.732 296.821L100.399 302.933C103.119 305.462 106.164 307.619 109.453 309.346C106.481 309.033 103.477 309.237 100.575 309.949C100.559 310.007 100.559 310.068 100.575 310.125C100.047 316.659 100.148 323.228 100.877 329.742C100.877 329.742 101.053 330.044 101.179 330.044C104.297 330.245 116.847 329.667 120.519 330.195C121.097 340.582 121.776 352.327 122.43 356.351C122.43 356.351 123.16 364.223 123.285 364.299C126.832 366.814 135.584 373.83 146.926 368.826C147.153 368.65 147.379 369.228 147.052 369.354V369.253ZM149.19 359.495C138.325 362.161 126.253 357.533 123.235 356.175C122.229 348.831 121.626 320.487 120.091 313.948C132.447 318.088 145.416 320.104 158.445 319.909C156.483 326.196 150.573 352.78 149.19 359.646V359.495ZM145.468 273.985C145.485 273.929 145.52 273.879 145.568 273.845C145.615 273.81 145.673 273.791 145.732 273.791C145.791 273.791 145.848 273.81 145.896 273.845C145.943 273.879 145.978 273.929 145.996 273.985C145.996 282.637 146.273 291.313 145.996 299.965C145.996 300.216 145.593 300.216 145.568 299.965C145.191 291.439 145.443 282.762 145.468 274.136V273.985ZM164.657 220.365C159.024 220.667 131.962 221.924 124.191 218.102H124.065C122.085 216.064 120.892 213.391 120.695 210.557C121.751 210.934 122.858 211.261 123.939 211.563C137.495 215.109 151.604 213.021 165.261 211.789C164.875 214.674 164.673 217.58 164.657 220.491V220.365ZM191.744 362.438C189.229 355.219 181.885 325.517 178.842 318.551C181.357 318.249 186.714 317.318 188.6 316.991C191.115 322.248 194.133 327.328 196.899 332.434C199.666 337.539 202.609 343.022 205.652 348.177C208.167 352.327 210.682 356.402 213.473 360.325C205.048 366.235 195.064 363.67 191.744 362.563V362.438ZM228.236 411.807C220.264 411.983 213.926 412.612 205.601 412.159C205.01 409.406 204.916 406.57 205.325 403.784C213.121 410.248 216.24 401.848 216.24 401.848C217.975 403.457 228.161 408.16 228.236 411.933V411.807ZM328.535 385.399C334.193 387.059 342.166 385.978 347.749 384.821C347.498 386.908 349.132 394.428 339.902 395.485C328.384 396.968 329.038 387.487 328.535 385.525V385.399ZM336.281 408.311C333.087 408.839 320.411 410.826 319.531 405.469C320.486 406.109 321.601 406.466 322.75 406.5C327.126 406.852 348.177 403.03 349.359 401.621C350.692 407.179 339.726 407.884 336.281 408.437V408.311ZM349.359 401.068C348.026 402.3 330.723 405.368 327.151 405.645C323.58 405.922 317.293 406.475 319.933 401.018C320.489 399.921 321.191 398.906 322.021 398C323.06 399.029 324.16 399.994 325.315 400.892C325.617 401.093 325.919 400.741 325.768 400.439C324.979 399.168 323.845 398.148 322.499 397.497C323.228 396.742 324.058 395.988 324.888 395.283C325.391 395.686 327.176 397.647 327.73 397.974C327.787 398.008 327.852 398.023 327.918 398.018C327.983 398.014 328.046 397.99 328.097 397.949C328.149 397.908 328.187 397.853 328.207 397.79C328.226 397.727 328.227 397.66 328.208 397.597C327.65 396.376 326.692 395.382 325.491 394.78L327.327 393.297C328.66 394.152 329.842 395.208 331.15 396.113C331.326 396.113 331.553 396.113 331.427 395.862C330.435 394.622 329.181 393.617 327.755 392.919C328.253 392.513 328.774 392.135 329.314 391.788C330.427 393.24 331.862 394.414 333.507 395.217C335.151 396.019 336.96 396.428 338.789 396.411C340.619 396.394 342.42 395.952 344.049 395.119C345.678 394.286 347.092 393.085 348.177 391.612C349.988 393.523 349.359 399.559 349.359 401.194V401.068ZM353.76 299.94C351.849 324.008 323.832 370.712 323.832 370.712V371.315C309.345 392.341 290.105 404.916 282.636 410.927C272.123 407.783 262.667 401.671 253.638 395.585C243.922 389.363 234.789 382.276 226.35 374.409C218.32 366.199 211.434 356.945 205.878 346.895C200.043 336.835 195.114 326.322 189.028 316.488C186.513 311.106 166.719 265.786 165.688 220.441C165.918 217.596 165.96 214.74 165.814 211.89L168.178 211.688C168.334 211.589 168.45 211.438 168.505 211.261C168.788 210.236 169.007 209.194 169.159 208.142C170.501 209.079 172.034 209.705 173.648 209.975C175.262 210.244 176.916 210.151 178.49 209.702C180.326 209.299 184.853 208.444 183.922 205.652C184.208 205.545 184.478 205.401 184.727 205.225C184.989 205.091 185.215 204.895 185.385 204.653C185.554 204.412 185.662 204.133 185.699 203.841C185.737 203.548 185.702 203.251 185.598 202.975C185.494 202.699 185.325 202.453 185.104 202.257C186.01 201.804 186.412 201.176 185.708 200.295C185.33 199.982 184.892 199.75 184.419 199.616C183.947 199.482 183.452 199.448 182.966 199.516C181.621 199.499 180.276 199.583 178.942 199.767C179.848 198.51 180.326 194.184 179.093 194.939C177.965 195.811 176.981 196.855 176.176 198.032C174.29 200.195 172.102 199.969 169.536 199.566C169.536 198.686 169.536 197.806 169.31 197.051C174.373 196.41 179.284 194.886 183.821 192.549C189.707 190.034 218.252 176.881 233.141 163.903C233.53 164.783 234.098 165.572 234.808 166.221C235.518 166.871 236.355 167.366 237.265 167.676C238.925 168.053 239.227 167.097 238.975 165.89C239.155 166.02 239.362 166.105 239.581 166.138C239.8 166.17 240.024 166.15 240.233 166.079C240.442 166.007 240.632 165.887 240.785 165.727C240.938 165.567 241.051 165.373 241.113 165.161C241.301 164.641 241.301 164.071 241.113 163.551C242.019 164.029 242.672 164.105 242.949 163.023C243.041 162.146 242.955 161.26 242.696 160.417C242.436 159.574 242.009 158.792 241.44 158.119C243.226 156.711 244.886 155.176 246.646 153.743C250.243 150.876 254.644 154.221 258.24 155.755C263.723 158.119 274.94 162.923 275.015 162.822C274.856 163.493 274.738 164.173 274.663 164.859C274.663 165.79 274.135 167.575 275.342 168.053C276.122 168.355 276.7 167.902 277.103 167.148C277.176 167.398 277.306 167.628 277.483 167.82C277.659 168.012 277.878 168.16 278.122 168.252C278.366 168.345 278.628 168.38 278.888 168.354C279.147 168.328 279.397 168.242 279.618 168.103C279.808 167.98 279.978 167.827 280.121 167.651C280.8 168.757 282.057 169.361 283.089 168.355C283.906 167.57 284.496 166.58 284.799 165.488C297.586 169.957 310.682 173.487 323.982 176.051C330.295 177.233 336.733 177.459 343.046 178.566C351.547 179.999 353.383 187.67 353.106 195.165C352.493 195.132 351.886 195.031 351.295 194.863C349.994 194.46 348.718 193.981 347.473 193.43C347.473 193.43 347.322 193.43 347.322 193.58C347.068 194.576 347.148 195.627 347.548 196.573C347.775 197.311 348.268 197.938 348.931 198.334C347.442 199.11 346.117 200.169 345.033 201.452C344.304 202.207 342.266 203.967 342.518 205.225C342.769 206.482 344.077 206.13 345.033 205.854C344.931 206.078 344.887 206.325 344.906 206.571C344.926 206.817 345.007 207.054 345.143 207.26C345.278 207.466 345.464 207.634 345.682 207.749C345.901 207.864 346.144 207.921 346.391 207.916H347.171C348.73 209.676 350.994 208.218 352.578 207.187L354.665 205.854C354.665 211.864 355.596 217.9 356.149 223.886C356.552 228.489 356.753 233.167 357.356 237.769C358.564 272.325 355.646 276.047 353.76 300.065V299.94ZM358.212 237.593C357.885 232.563 357.18 227.533 356.753 222.503C356.25 216.794 356.049 210.959 355.143 205.3C357.086 204.057 358.869 202.579 360.45 200.899C361.733 202.936 363.091 204.923 364.298 206.86C364.638 207.068 365.013 207.213 365.404 207.287C364.952 212.317 367.391 231.658 368.297 238.549C363.418 238.398 359.796 237.945 358.212 237.719V237.593ZM368.775 238.599C368.246 231.607 366.888 212.317 366.26 207.287C384.015 207.01 402.878 202.106 415.679 189.406C415.956 197.252 418.396 220.742 418.521 224.616C418.702 225.815 418.578 227.04 418.161 228.178C417.743 229.317 417.045 230.332 416.132 231.129C400.288 238.926 380.872 239.404 368.775 238.725V238.599ZM403.985 405.243C399.935 407.079 391.787 410.65 389.071 405.545C390.492 405.668 391.924 405.532 393.296 405.142C400.818 403.692 407.929 400.6 414.12 396.088C416.861 399.081 405.569 404.589 403.859 405.368L403.985 405.243ZM413.869 395.459C408.045 399.804 401.312 402.771 394.176 404.136C391.938 404.589 388.341 405.469 387.889 402.476C387.962 401.369 388.365 400.309 389.045 399.433C389.322 398.93 389.649 398.452 389.976 397.974C390.884 398.458 391.674 399.137 392.29 399.961C392.566 400.162 392.818 399.785 392.717 399.534C392.159 398.617 391.322 397.903 390.328 397.497C390.806 396.843 391.309 396.214 391.812 395.585C393.598 396.315 394.075 397.723 394.604 398.1C395.132 398.477 395.056 398.1 394.981 397.824C394.347 396.665 393.384 395.72 392.214 395.107L393.497 393.548C395.408 394.73 396.012 396.264 396.565 396.792C396.792 396.968 397.244 396.792 397.119 396.465C396.448 395.018 395.374 393.795 394.025 392.944L395.358 391.285C398.326 396.315 409.744 393.8 410.171 388.015C411.605 390.416 412.801 392.952 413.743 395.585L413.869 395.459ZM408.336 381.476C408.839 383.337 412.485 391.259 402.752 393.02C395.987 394.252 393.396 386.179 393.246 385.852C398.516 385.745 403.67 384.282 408.21 381.602L408.336 381.476ZM472.82 342.997C471.638 342.468 471.638 341.462 471.211 340.482C470.644 338.85 469.893 337.289 468.972 335.829C464.822 330.296 456.397 331.805 451.04 334.823C449.707 335.622 448.578 336.719 447.74 338.028C446.902 339.337 446.379 340.823 446.211 342.368C446.182 343.042 446.115 343.713 446.01 344.38C445.532 346.065 445.155 346.015 443.344 346.241C441.005 346.543 419.829 348.001 407.858 348.353C405.971 337.338 404.11 326.423 403.306 321.971C402.11 316.962 401.914 311.766 402.727 306.68C405.778 302.114 408.095 297.099 409.593 291.816C417.415 291.288 434.743 289.779 439.169 290.936C444.677 292.445 447.62 297.123 449.657 302.103C451.694 307.082 453.253 312.615 455.014 317.57C455.014 317.771 455.542 317.872 455.618 317.872C459.994 317.872 464.47 317.243 468.846 317.042C473.223 316.841 479.108 315.181 482.83 317.947C485.554 320.491 487.254 323.944 487.608 327.655C488.479 332.51 488.9 337.435 488.866 342.368C484.439 342.217 473.524 343.324 472.82 342.997Z" fill="black"/>
<path d="M465.703 355.873C466.554 355.195 467.259 354.35 467.773 353.391C468.288 352.431 468.602 351.377 468.696 350.292C468.79 349.208 468.662 348.115 468.321 347.082C467.979 346.048 467.431 345.094 466.709 344.279C465.158 342.34 463 340.98 460.581 340.419C458.162 339.857 455.625 340.128 453.379 341.186C448.198 344.254 449.758 350.718 452.122 353.987C454.838 357.709 461.98 358.388 465.703 355.873ZM453.782 342.041C455.295 341.304 456.982 340.997 458.658 341.152C460.334 341.307 461.936 341.919 463.288 342.921C466.809 345.21 469.022 350.642 465.803 354.113C463.288 356.804 457.202 356.628 454.41 354.49C449.028 350.441 450.99 343.399 453.782 342.041Z" fill="black"/>
<path d="M460.245 349.585C460.706 349.115 460.964 348.483 460.964 347.825C460.964 347.167 460.706 346.535 460.245 346.065C459.779 345.626 459.163 345.382 458.523 345.382C457.882 345.382 457.266 345.626 456.8 346.065C456.564 346.262 456.372 346.505 456.234 346.78C456.097 347.054 456.017 347.354 456.001 347.661C455.984 347.968 456.031 348.274 456.138 348.562C456.245 348.85 456.411 349.113 456.624 349.334C456.841 349.594 457.109 349.808 457.411 349.963C457.712 350.117 458.043 350.209 458.381 350.232C458.719 350.256 459.059 350.21 459.379 350.099C459.7 349.988 459.994 349.813 460.245 349.585ZM459.214 346.593C459.404 346.666 459.573 346.783 459.708 346.934C459.844 347.086 459.941 347.267 459.993 347.464C460.044 347.66 460.049 347.866 460.005 348.064C459.961 348.263 459.871 348.448 459.742 348.605C457.202 351.296 455.718 345.436 459.164 346.542L459.214 346.593ZM437.082 299.587C432.052 295.714 422.545 298.38 417.189 299.99C417.133 299.996 417.082 300.022 417.044 300.064C417.007 300.106 416.987 300.16 416.987 300.216C417.44 306.126 418.823 312.414 419.754 318.274C419.754 318.274 435.523 316.287 443.344 316.312C443.546 316.312 443.923 316.312 443.898 316.035C443.168 310.402 441.886 303.31 437.082 299.587ZM420.458 317.192C419.628 311.76 419.276 306.151 418.194 300.744C423.501 299.738 432.304 296.896 436.856 300.996C440.829 304.542 441.735 310.276 442.489 315.281C438.818 315.281 424.13 316.639 420.458 317.243V317.192ZM462.609 365.832C455.316 361.431 445.206 362.915 437.459 365.832C433.387 367.319 429.563 369.414 426.117 372.044C423.426 374.132 420.911 376.571 421.464 380.218C421.464 380.771 425.614 393.975 425.689 394C432.404 398.301 442.364 398.024 449.808 396.239C453.946 395.261 457.908 393.649 461.553 391.46C464.811 389.434 467.481 386.59 469.299 383.211C469.299 383.211 468.645 374.836 468.62 374.635C468.406 372.791 467.747 371.026 466.7 369.493C465.653 367.96 464.249 366.704 462.609 365.832ZM424.256 375.113C427.395 371.816 431.214 369.241 435.447 367.568C443.546 363.971 455.115 362.764 461.83 366.713C466.181 369.228 469.098 374.534 465.904 379.288C463.224 382.48 459.756 384.916 455.844 386.355C447.922 389.901 436.931 392.743 428.908 388.04C424.608 385.525 420.458 379.765 424.256 375.113ZM459.893 391.083C456.653 392.864 453.183 394.193 449.582 395.032C442.058 397.013 434.087 396.41 426.947 393.321C426.947 393.321 425.06 387.688 424.13 384.921C425.864 386.996 428.046 388.65 430.512 389.761C432.977 390.872 435.662 391.41 438.365 391.335C447.197 391.109 455.764 388.273 462.987 383.186C464.941 381.938 466.489 380.146 467.438 378.03C467.665 379.64 467.866 382.934 467.866 383.06C465.986 386.409 463.23 389.182 459.893 391.083Z" fill="black"/>
<path d="M440.603 385.4L439.849 386.733C439.572 387.236 440.352 387.689 440.628 387.186L441.483 385.702C442.331 385.957 443.226 386.013 444.099 385.865C444.971 385.716 445.798 385.368 446.513 384.847C446.941 384.52 446.513 383.866 445.96 384.118C444.76 384.788 443.361 385.011 442.011 384.746C443.47 382.231 445.029 379.943 446.614 377.629C447.192 377.629 447.771 377.629 448.374 377.78C449.507 377.959 450.667 377.781 451.694 377.272C452.721 376.763 453.565 375.947 454.109 374.938C454.453 374.029 454.503 373.034 454.25 372.095C453.997 371.156 453.455 370.32 452.7 369.707L452.323 369.455L453.178 368.147C453.193 368.129 453.204 368.108 453.211 368.086C453.218 368.063 453.22 368.04 453.218 368.016C453.215 367.993 453.208 367.97 453.197 367.95C453.186 367.929 453.171 367.911 453.153 367.896C453.135 367.881 453.114 367.87 453.091 367.863C453.069 367.856 453.045 367.854 453.022 367.856C452.999 367.859 452.976 367.866 452.955 367.877C452.935 367.888 452.916 367.903 452.901 367.921C452.499 368.323 452.097 368.726 451.719 369.153C450.379 368.771 448.97 368.692 447.595 368.923C446.22 369.154 444.914 369.688 443.772 370.486C443.546 370.637 443.772 371.04 443.973 370.939C445.253 370.36 446.607 369.962 447.997 369.757C449 369.637 450.017 369.714 450.99 369.983C449.17 372.11 447.489 374.353 445.96 376.698C443.319 376.422 440.276 376.221 438.415 378.66C437.996 379.215 437.718 379.863 437.603 380.549C437.488 381.235 437.54 381.938 437.755 382.6C437.97 383.261 438.341 383.861 438.836 384.348C439.332 384.836 439.938 385.197 440.603 385.4ZM451.795 370.134C452.432 370.348 452.967 370.79 453.296 371.376C453.626 371.961 453.727 372.648 453.58 373.303C452.927 376.673 450.009 376.95 447.293 376.724C448.802 374.535 450.311 372.347 451.795 370.134ZM442.64 377.377C443.476 377.284 444.319 377.284 445.155 377.377C443.671 379.666 442.288 382.03 440.955 384.344C436.378 382.282 439.044 377.805 442.64 377.377ZM163.651 434.116C162.794 431.841 161.399 429.806 159.586 428.186C157.773 426.566 155.596 425.408 153.239 424.81C146.234 423.02 138.85 423.397 132.063 425.892C126.178 427.753 116.973 432.959 118.834 440.554C119.06 442.164 122.154 453.733 122.33 453.733C128.315 459.869 138.476 459.693 146.298 458.763C153.239 457.832 163.098 455.292 165.814 447.848C165.36 443.302 164.655 438.785 163.702 434.317C163.715 434.302 163.725 434.283 163.73 434.264C163.734 434.244 163.734 434.223 163.729 434.203C163.724 434.183 163.715 434.165 163.701 434.15C163.687 434.135 163.67 434.123 163.651 434.116ZM120.418 435.097C122.891 431.136 126.759 428.247 131.258 426.998C138.222 424.35 145.825 423.877 153.063 425.64C157.942 426.772 164.129 431.576 163.123 437.26C162.268 442.516 158.093 444.805 153.591 446.54C145.389 450.137 136.148 450.584 127.636 447.797C122.355 445.735 117.149 441.108 120.418 435.097ZM145.065 457.908C141.142 458.424 137.168 458.424 133.245 457.908C129.47 457.21 125.887 455.718 122.732 453.532C122.732 453.532 121.374 447.144 120.594 444.1C124.468 448.904 132.842 450.187 138.325 450.187C142.935 450.181 147.511 449.39 151.856 447.848C155.566 446.878 158.973 444.993 161.765 442.365C162.587 441.431 163.219 440.346 163.626 439.171C163.978 442.013 165.06 447.621 165.06 447.621C160.331 454.462 153.038 456.851 145.065 457.732V457.908Z" fill="black"/>
<path d="M136.665 444.904L136.087 445.809C135.911 446.086 136.338 446.438 136.54 446.161L137.269 445.18C138.291 445.619 139.399 445.82 140.51 445.768C141.621 445.715 142.706 445.411 143.682 444.879C144.059 444.652 143.833 443.998 143.38 444.149C141.597 444.843 139.635 444.931 137.797 444.401C139.281 442.162 142.576 436.252 142.953 435.699C145.216 435.95 147.631 436.026 149.039 433.913C149.382 433.55 149.629 433.107 149.758 432.625C149.888 432.143 149.896 431.636 149.781 431.15C149.666 430.664 149.433 430.214 149.101 429.84C148.77 429.466 148.351 429.181 147.882 429.009L148.36 428.33C148.536 428.104 148.184 427.877 147.983 428.053L147.254 428.758C146.212 428.356 145.091 428.206 143.981 428.32C142.871 428.434 141.804 428.808 140.865 429.411C140.664 429.588 140.865 429.839 141.142 429.738C142.411 429.199 143.79 428.966 145.166 429.059C145.682 429.095 146.191 429.205 146.675 429.386C145.117 431.068 143.735 432.906 142.55 434.869C141.388 434.607 140.195 434.505 139.004 434.567C137.869 434.689 136.788 435.119 135.88 435.81C134.971 436.502 134.269 437.429 133.849 438.491C133.392 439.716 133.431 441.071 133.957 442.268C134.483 443.465 135.454 444.411 136.665 444.904ZM147.354 429.814C149.542 431.197 148.913 434.341 145.317 435.02C144.7 435.108 144.073 435.108 143.456 435.02C144.688 433.184 146.021 431.474 147.354 429.738V429.814ZM142.098 435.699C140.388 438.491 138.879 441.408 137.068 444.175C136.505 443.877 136.012 443.463 135.621 442.96C135.231 442.457 134.952 441.876 134.804 441.257C133.622 436.378 138.325 435.246 142.098 435.624V435.699ZM91.9487 391.385C85.4198 387.95 77.9213 386.824 70.6718 388.191C64.6106 388.87 54.5758 392.24 55.0285 399.961C55.0285 401.52 55.6321 413.391 55.783 413.441C60.3351 420.483 69.9424 422.445 77.6886 423.074C84.7809 423.652 95.2936 423.325 99.5691 416.409L100.248 402.652C99.8535 400.252 98.8956 397.979 97.4529 396.021C96.0103 394.062 94.124 392.473 91.9487 391.385ZM98.8901 416.208C92.9798 421.741 85.5606 422.696 77.6886 422.068C73.7208 421.843 69.7986 421.108 66.019 419.88C62.3222 418.424 58.9846 416.184 56.2357 413.315C56.2357 413.315 56.2357 406.802 56.0596 403.683C58.9519 409.342 67.2262 412.335 72.8095 413.416C77.1879 414.253 81.6744 414.364 86.0887 413.743C89.852 413.518 93.5036 412.378 96.7272 410.423C97.7384 409.664 98.5926 408.716 99.2422 407.632C98.9655 410.474 98.8901 416.208 98.8901 416.208ZM99.4434 404.689C97.9595 409.971 93.3571 411.58 88.5031 412.536C79.7527 414.496 70.5879 413.199 62.7244 408.889C58.0465 406.123 53.3937 400.916 57.1914 395.434C58.6397 393.643 60.4316 392.16 62.4616 391.071C64.4915 389.983 66.7186 389.311 69.0119 389.096C76.6737 387.521 84.6425 388.557 91.6469 392.039C95.7463 394.101 100.902 399.584 99.4434 404.689Z" fill="black"/>
<path d="M86.0128 394.227L86.4403 393.85C86.6416 393.674 86.4404 393.347 86.1386 393.472L85.5349 393.875C84.5299 393.344 83.4274 393.024 82.2946 392.933C81.1618 392.842 80.0224 392.983 78.9457 393.347C78.8981 393.37 78.8604 393.41 78.8392 393.459C78.818 393.507 78.8145 393.562 78.8295 393.613C78.8445 393.664 78.877 393.708 78.9212 393.737C78.9654 393.767 79.0186 393.78 79.0714 393.774C80.9858 393.461 82.9494 393.669 84.7553 394.378C83.0156 395.611 81.3986 397.009 79.9265 398.553L78.4929 398.351C77.304 397.988 76.0481 397.898 74.8197 398.09C73.5913 398.282 72.4223 398.749 71.4007 399.458C70.754 399.94 70.2328 400.571 69.881 401.297C69.5292 402.023 69.3572 402.822 69.3793 403.629C69.4015 404.435 69.6173 405.224 70.0085 405.93C70.3997 406.635 70.9548 407.236 71.627 407.682L70.8725 408.462C70.5959 408.713 70.9983 409.09 71.3001 408.864L72.1552 408.084C73.0447 408.766 74.0901 409.214 75.1966 409.39C76.3032 409.566 77.4362 409.463 78.4929 409.09C78.5741 409.046 78.6377 408.976 78.6729 408.89C78.7081 408.805 78.7128 408.71 78.6862 408.621C78.6597 408.533 78.6035 408.456 78.5271 408.404C78.4506 408.352 78.3587 408.328 78.2666 408.336C76.4392 408.554 74.5878 408.239 72.9348 407.431C74.972 405.444 79.6498 400.036 80.178 399.533C81.78 399.86 83.4375 399.791 85.0068 399.332C85.7291 399.142 86.3497 398.68 86.7388 398.042C87.1279 397.405 87.2553 396.641 87.0943 395.912C86.9342 395.244 86.553 394.65 86.0128 394.227ZM72.2558 407.028C71.8046 406.776 71.409 406.435 71.0925 406.026C70.776 405.617 70.5452 405.149 70.4137 404.649C70.2823 404.149 70.2529 403.628 70.3274 403.116C70.4019 402.604 70.5787 402.113 70.8474 401.671C72.2306 398.88 74.9971 398.754 77.6882 399.156L79.1469 399.383C76.7828 401.847 74.6199 404.538 72.2558 407.028ZM83.2715 398.704C82.5104 398.779 81.7438 398.779 80.9828 398.704C82.4164 397.371 83.9254 396.189 85.4092 394.805C85.6792 395.014 85.8937 395.287 86.034 395.598C86.1743 395.909 86.2361 396.25 86.214 396.591C86.1888 398.301 84.5793 398.603 83.2715 398.704Z" fill="black"/>
</svg>
