<svg width="24" height="24" viewBox="0 0 24 24" fill="none" xmlns="http://www.w3.org/2000/svg">
<path d="M2 14L5.233 16.425C5.43936 16.5797 5.69752 16.6487 5.95356 16.6176C6.2096 16.5865 6.44372 16.4577 6.607 16.258L15 6" stroke="#629576" stroke-width="2" stroke-linecap="round"/>
<path fill-rule="evenodd" clip-rule="evenodd" d="M9.875 15.7799L11.604 17.1629C12.0152 17.4918 12.5395 17.6453 13.0631 17.59C13.5868 17.5348 14.0675 17.2753 14.401 16.8679L22.775 6.63285C22.9381 6.42708 23.0137 6.16543 22.9855 5.90438C22.9573 5.64334 22.8276 5.40385 22.6244 5.23763C22.4211 5.07141 22.1607 4.99179 21.8992 5.01597C21.6378 5.04015 21.3963 5.16618 21.227 5.36686L12.853 15.5999L11.142 14.2309L9.875 15.7799Z" fill="#629576"/>
</svg>
