<svg width="52" height="52" viewBox="0 0 52 52" fill="none" xmlns="http://www.w3.org/2000/svg">
<path d="M39.2379 9.52544C34.4543 4.74185 26.6645 4.74185 21.886 9.52544C13.28 18.1248 9.22958 22.2366 10.4556 23.5C11.6817 24.7634 15.5 20.4993 24.4047 12.0493C26.05 10.404 28.2387 9.50005 30.5645 9.50005C32.8903 9.50005 35.079 10.404 36.7192 12.0493C38.3645 13.6946 39.2684 15.8833 39.2684 18.204C39.2684 20.5297 38.3645 22.7133 36.7192 24.3586L23.2114 37.8614L21.0227 40.0501C18.9762 42.0965 15.65 42.0965 13.6036 40.0501C12.6133 39.0598 12.07 37.7446 12.07 36.343C12.07 34.9415 12.6133 33.6262 13.6036 32.636L27.0047 19.2399C27.345 18.9047 27.7918 18.7168 28.2692 18.7168H28.2743C28.7516 18.7168 29.1934 18.9047 29.5286 19.2399C29.8688 19.5801 30.0516 20.027 30.0516 20.5043C30.0516 20.9766 29.8637 21.4235 29.5286 21.7586C22.3309 28.9497 18.679 32.8285 19.8395 33.9143C21 35 32.0422 24.2774 32.0422 24.2774C32.0422 24.2774 33.6063 21.9262 33.6063 20.4993C33.6063 19.0723 33.0477 17.7266 32.0422 16.7211C29.9551 14.634 26.5629 14.6391 24.4758 16.7211L23.1758 18.0262L11.0797 30.1172C10.2588 30.9334 9.60799 31.9044 9.16516 32.974C8.72233 34.0436 8.49625 35.1905 8.50005 36.3481C8.50005 38.6993 9.41919 40.9083 11.0797 42.5688C12.8012 44.2852 15.0559 45.1434 17.3106 45.1434C19.5653 45.1434 21.82 44.2852 23.5364 42.5688L39.2379 26.8774C41.5485 24.5618 42.8282 21.4793 42.8282 18.204C42.8332 14.9235 41.5536 11.8411 39.2379 9.52544Z" fill="#629576"/>
</svg>
