<svg width="35" height="35" viewBox="0 0 35 35" fill="none" xmlns="http://www.w3.org/2000/svg">
<path fill-rule="evenodd" clip-rule="evenodd" d="M24.1384 32.2773C22.0384 32.2 16.0869 31.3775 9.854 25.146C3.62254 18.9131 2.8015 12.9631 2.72275 10.8617C2.60608 7.65917 5.059 4.54854 7.89254 3.33375C8.23376 3.18641 8.60742 3.13031 8.97686 3.17097C9.34629 3.21162 9.69882 3.34762 9.99983 3.56563C12.3332 5.26604 13.9432 7.83854 15.3257 9.86125C15.6298 10.3056 15.7599 10.8464 15.6911 11.3805C15.6222 11.9147 15.3593 12.4048 14.9523 12.7575L12.1071 14.8706C11.9697 14.9699 11.8729 15.1157 11.8348 15.2809C11.7967 15.4461 11.8199 15.6195 11.9 15.769C12.5446 16.94 13.6909 18.6842 15.0034 19.9967C16.3173 21.3092 18.1432 22.5313 19.3959 23.2488C19.5529 23.3369 19.7378 23.3616 19.9125 23.3176C20.0872 23.2737 20.2384 23.1645 20.335 23.0125L22.1871 20.1935C22.5276 19.7412 23.0299 19.4382 23.5888 19.348C24.1477 19.2577 24.7199 19.3872 25.1855 19.7094C27.2373 21.1298 29.6319 22.7121 31.3848 24.9565C31.6205 25.2597 31.7705 25.6206 31.819 26.0016C31.8674 26.3825 31.8127 26.7695 31.6605 27.1221C30.4398 29.9702 27.3511 32.3954 24.1384 32.2773Z" fill="#19282C"/>
</svg>
