<svg width="36" height="36" viewBox="0 0 36 36" fill="none" xmlns="http://www.w3.org/2000/svg">
<path d="M24.7014 27.3499C21.6873 29.6895 17.8949 30.7925 14.0963 30.4344C10.2976 30.0763 6.77813 28.2841 4.2543 25.4226C1.73046 22.5611 0.391959 18.8453 0.511246 15.0316C0.630533 11.218 2.19864 7.59313 4.89638 4.89492C7.59459 2.19718 11.2195 0.629068 15.0331 0.509781C18.8467 0.390494 22.5625 1.729 25.4241 4.25283C28.2856 6.77667 30.0778 10.2961 30.4359 14.0948C30.7939 17.8935 29.6909 21.6858 27.3514 24.6999L34.9514 32.2999C35.1982 32.5291 35.3786 32.8206 35.4737 33.1437C35.5687 33.4669 35.5748 33.8096 35.4914 34.1359C35.408 34.4622 35.2381 34.76 34.9996 34.9979C34.7611 35.2357 34.4629 35.4048 34.1364 35.4874C33.8104 35.571 33.468 35.5651 33.1451 35.4705C32.8222 35.376 32.5307 35.1961 32.3014 34.9499L24.7014 27.3499ZM26.7514 15.4999C26.7736 14.0089 26.4991 12.5284 25.9439 11.1445C25.3887 9.76052 24.5639 8.50079 23.5174 7.43856C22.4709 6.37632 21.2236 5.53279 19.8481 4.95702C18.4726 4.38125 16.9963 4.08474 15.5051 4.08474C14.014 4.08474 12.5377 4.38125 11.1622 4.95702C9.78669 5.53279 8.5394 6.37632 7.49288 7.43856C6.44637 8.50079 5.62152 9.76052 5.06632 11.1445C4.51112 12.5284 4.23665 14.0089 4.25888 15.4999C4.30292 18.4536 5.50716 21.2713 7.61146 23.3445C9.71575 25.4176 12.5512 26.5797 15.5051 26.5797C18.4591 26.5797 21.2945 25.4176 23.3988 23.3445C25.5031 21.2713 26.7073 18.4536 26.7514 15.4999Z" fill="#D9D9D9"/>
</svg>
