<svg width="30" height="28" viewBox="0 0 30 28" fill="none" xmlns="http://www.w3.org/2000/svg">
<path d="M2.60358 0.187502C1.43422 -0.37107 0.149507 0.697502 0.483436 1.94943L2.93144 11.0966C2.99279 11.3265 3.12032 11.5333 3.29821 11.6914C3.47609 11.8494 3.69649 11.9517 3.93201 11.9855L15.934 13.7001C16.2813 13.7486 16.2813 14.2514 15.934 14.3011L3.93322 16.0145C3.6977 16.0483 3.47731 16.1506 3.29942 16.3086C3.12154 16.4667 2.994 16.6735 2.93265 16.9034L0.483436 26.0554C0.149507 27.3061 1.43422 28.3747 2.60358 27.8174L28.7083 15.3721C29.8607 14.8233 29.8607 13.1816 28.7083 12.6315L2.60358 0.187502Z" fill="#629576"/>
</svg>
