<svg width="50" height="50" viewBox="0 0 50 50" fill="none" xmlns="http://www.w3.org/2000/svg">
<circle cx="25" cy="25" r="24" fill="white" stroke="#19282C" stroke-width="2"/>
<path d="M25 28.75C27.0711 28.75 28.75 27.0711 28.75 25C28.75 22.9289 27.0711 21.25 25 21.25C22.9289 21.25 21.25 22.9289 21.25 25C21.25 27.0711 22.9289 28.75 25 28.75Z" stroke="#19282C" stroke-width="2"/>
<path d="M27.2063 12.69C26.7476 12.5 26.1651 12.5 25.0001 12.5C23.8351 12.5 23.2526 12.5 22.7938 12.69C22.4903 12.8156 22.2145 12.9999 21.9822 13.2322C21.7499 13.4644 21.5657 13.7402 21.4401 14.0437C21.3251 14.3225 21.2788 14.6488 21.2613 15.1225C21.2535 15.465 21.1588 15.7999 20.9861 16.0957C20.8134 16.3916 20.5683 16.6386 20.2738 16.8138C19.9749 16.9813 19.6384 17.0701 19.2957 17.0719C18.9531 17.0736 18.6156 16.9882 18.3151 16.8238C17.8951 16.6013 17.5913 16.4788 17.2901 16.4388C16.633 16.3523 15.9684 16.5304 15.4426 16.9337C15.0501 17.2375 14.7576 17.7413 14.1751 18.75C13.5926 19.7587 13.3001 20.2625 13.2363 20.7562C13.1934 21.0818 13.215 21.4127 13.2999 21.7299C13.3848 22.0471 13.5314 22.3445 13.7313 22.605C13.9163 22.845 14.1751 23.0462 14.5763 23.2987C15.1676 23.67 15.5476 24.3025 15.5476 25C15.5476 25.6975 15.1676 26.33 14.5763 26.7C14.1751 26.9537 13.9151 27.155 13.7313 27.395C13.5314 27.6555 13.3848 27.9529 13.2999 28.2701C13.215 28.5873 13.1934 28.9182 13.2363 29.2438C13.3013 29.7363 13.5926 30.2413 14.1738 31.25C14.7576 32.2587 15.0488 32.7625 15.4426 33.0662C15.7031 33.2661 16.0005 33.4127 16.3177 33.4977C16.6349 33.5826 16.9658 33.6042 17.2913 33.5613C17.5913 33.5213 17.8951 33.3988 18.3151 33.1763C18.6156 33.0118 18.9531 32.9264 19.2957 32.9281C19.6384 32.9299 19.9749 33.0187 20.2738 33.1862C20.8776 33.5362 21.2363 34.18 21.2613 34.8775C21.2788 35.3525 21.3238 35.6775 21.4401 35.9562C21.5657 36.2598 21.7499 36.5356 21.9822 36.7678C22.2145 37.0001 22.4903 37.1844 22.7938 37.31C23.2526 37.5 23.8351 37.5 25.0001 37.5C26.1651 37.5 26.7476 37.5 27.2063 37.31C27.5098 37.1844 27.7856 37.0001 28.0179 36.7678C28.2502 36.5356 28.4344 36.2598 28.5601 35.9562C28.6751 35.6775 28.7213 35.3525 28.7388 34.8775C28.7638 34.18 29.1226 33.535 29.7263 33.1862C30.0252 33.0187 30.3618 32.9299 30.7044 32.9281C31.047 32.9264 31.3845 33.0118 31.6851 33.1763C32.1051 33.3988 32.4088 33.5213 32.7088 33.5613C33.0344 33.6042 33.3652 33.5826 33.6824 33.4977C33.9997 33.4127 34.297 33.2661 34.5576 33.0662C34.9513 32.7637 35.2426 32.2587 35.8251 31.25C36.4076 30.2413 36.7001 29.7375 36.7638 29.2438C36.8068 28.9182 36.7852 28.5873 36.7002 28.2701C36.6153 27.9529 36.4687 27.6555 36.2688 27.395C36.0838 27.155 35.8251 26.9538 35.4238 26.7013C35.131 26.5233 34.8882 26.2737 34.7183 25.9762C34.5484 25.6786 34.457 25.3427 34.4526 25C34.4526 24.3025 34.8326 23.67 35.4238 23.3C35.8251 23.0463 36.0851 22.845 36.2688 22.605C36.4687 22.3445 36.6153 22.0471 36.7002 21.7299C36.7852 21.4127 36.8068 21.0818 36.7638 20.7562C36.6988 20.2637 36.4076 19.7587 35.8263 18.75C35.2426 17.7413 34.9513 17.2375 34.5576 16.9337C34.297 16.7339 33.9997 16.5873 33.6824 16.5023C33.3652 16.4174 33.0344 16.3958 32.7088 16.4388C32.4088 16.4788 32.1051 16.6013 31.6838 16.8238C31.3834 16.988 31.0462 17.0733 30.7038 17.0715C30.3614 17.0698 30.0251 16.9811 29.7263 16.8138C29.4319 16.6386 29.1868 16.3916 29.0141 16.0957C28.8413 15.7999 28.7466 15.465 28.7388 15.1225C28.7213 14.6475 28.6763 14.3225 28.5601 14.0437C28.4344 13.7402 28.2502 13.4644 28.0179 13.2322C27.7856 12.9999 27.5098 12.8156 27.2063 12.69Z" stroke="#19282C" stroke-width="2"/>
</svg>
