<svg width="26" height="26" viewBox="0 0 26 26" fill="none" xmlns="http://www.w3.org/2000/svg">
<path d="M9.44154 4.76C11.0253 1.92 11.8165 0.5 13.0003 0.5C14.184 0.5 14.9753 1.92 16.559 4.76L16.969 5.495C17.419 6.3025 17.644 6.70625 17.994 6.9725C18.344 7.23875 18.7815 7.3375 19.6565 7.535L20.4515 7.715C23.5265 8.41125 25.0628 8.75875 25.429 9.935C25.794 11.11 24.7465 12.3363 22.6503 14.7875L22.1078 15.4213C21.5128 16.1175 21.214 16.4662 21.0803 16.8962C20.9465 17.3275 20.9915 17.7925 21.0815 18.7212L21.164 19.5675C21.4803 22.8387 21.639 24.4738 20.6815 25.2C19.724 25.9275 18.284 25.2638 15.4065 23.9387L14.6603 23.5962C13.8428 23.2188 13.434 23.0312 13.0003 23.0312C12.5665 23.0312 12.1578 23.2188 11.3403 23.5962L10.5953 23.9387C7.71654 25.2638 6.27654 25.9263 5.32029 25.2013C4.36154 24.4737 4.52029 22.8387 4.83654 19.5675L4.91904 18.7225C5.00904 17.7925 5.05404 17.3275 4.91904 16.8975C4.78654 16.4663 4.48779 16.1175 3.89279 15.4225L3.35029 14.7875C1.25404 12.3375 0.206544 11.1112 0.571544 9.935C0.937794 8.75875 2.47529 8.41 5.55029 7.715L6.34529 7.535C7.21904 7.3375 7.65529 7.23875 8.00654 6.9725C8.35654 6.70625 8.58154 6.3025 9.03154 5.495L9.44154 4.76Z" fill="#F2D53E"/>
</svg>
