<svg width="32" height="32" viewBox="0 0 32 32" fill="none" xmlns="http://www.w3.org/2000/svg">
<path d="M16.0002 7.78003L15.6872 7.87503L3.18721 12.063L0.345215 13L2.00021 13.53V22.28C1.40321 22.627 1.00021 23.26 1.00021 24C1.00021 24.5305 1.21093 25.0392 1.586 25.4142C1.96107 25.7893 2.46978 26 3.00021 26C3.53065 26 4.03936 25.7893 4.41443 25.4142C4.7895 25.0392 5.00022 24.5305 5.00022 24C5.00022 23.26 4.59721 22.627 4.00021 22.28V14.22L6.00022 14.875V20C6.00022 20.82 6.50022 21.5 7.09421 21.97C7.68821 22.437 8.42622 22.767 9.31221 23.063C11.0862 23.653 13.4242 24 16.0002 24C18.5762 24 20.9142 23.654 22.6882 23.062C23.5742 22.767 24.3122 22.437 24.9062 21.969C25.5002 21.5 26.0002 20.82 26.0002 20V14.875L28.8132 13.937L31.6552 13L28.8122 12.062L16.3122 7.87503L16.0002 7.78003ZM16.0002 9.87503L25.3752 13L16.0002 16.125L6.62522 13L16.0002 9.87503ZM8.00022 15.563L15.6882 18.125L16.0002 18.219L16.3132 18.124L24.0002 15.562V20C24.0002 20.01 24.0042 20.126 23.6872 20.375C23.3712 20.625 22.8042 20.94 22.0622 21.188C20.5802 21.681 18.3952 22 16.0002 22C13.6052 22 11.4202 21.682 9.93721 21.187C9.19722 20.94 8.62922 20.624 8.31321 20.375C7.99521 20.125 8.00022 20.01 8.00022 20V15.563Z" fill="white"/>
</svg>
