<svg width="32" height="32" viewBox="0 0 32 32" fill="none" xmlns="http://www.w3.org/2000/svg">
<path d="M15.9997 7.78003L15.6867 7.87503L3.18673 12.063L0.344727 13L1.99973 13.53V22.28C1.40273 22.627 0.999727 23.26 0.999727 24C0.999727 24.5305 1.21044 25.0392 1.58551 25.4142C1.96059 25.7893 2.46929 26 2.99973 26C3.53016 26 4.03887 25.7893 4.41394 25.4142C4.78901 25.0392 4.99973 24.5305 4.99973 24C4.99973 23.26 4.59673 22.627 3.99973 22.28V14.22L5.99973 14.875V20C5.99973 20.82 6.49973 21.5 7.09373 21.97C7.68773 22.437 8.42573 22.767 9.31173 23.063C11.0857 23.653 13.4237 24 15.9997 24C18.5757 24 20.9137 23.654 22.6877 23.062C23.5737 22.767 24.3117 22.437 24.9057 21.969C25.4997 21.5 25.9997 20.82 25.9997 20V14.875L28.8127 13.937L31.6547 13L28.8117 12.062L16.3117 7.87503L15.9997 7.78003ZM15.9997 9.87503L25.3747 13L15.9997 16.125L6.62473 13L15.9997 9.87503ZM7.99973 15.563L15.6877 18.125L15.9997 18.219L16.3127 18.124L23.9997 15.562V20C23.9997 20.01 24.0037 20.126 23.6867 20.375C23.3707 20.625 22.8037 20.94 22.0617 21.188C20.5797 21.681 18.3947 22 15.9997 22C13.6047 22 11.4197 21.682 9.93673 21.187C9.19673 20.94 8.62873 20.624 8.31273 20.375C7.99473 20.125 7.99973 20.01 7.99973 20V15.563Z" fill="#576266"/>
</svg>
