<svg width="35" height="35" viewBox="0 0 35 35" fill="none" xmlns="http://www.w3.org/2000/svg">
<path d="M17.4993 2.91667C9.44935 2.91667 2.91602 9.45 2.91602 17.5C2.91602 25.55 9.44935 32.0833 17.4993 32.0833C25.5493 32.0833 32.0827 25.55 32.0827 17.5C32.0827 9.45 25.5493 2.91667 17.4993 2.91667ZM24.266 12.8333C24.0473 15.1375 23.0993 20.7375 22.6181 23.3188C22.4139 24.4125 22.0056 24.7771 21.6264 24.8208C20.7806 24.8938 20.1389 24.2667 19.3223 23.7271C18.0389 22.8813 17.3098 22.3563 16.0702 21.5396C14.6264 20.5917 15.5598 20.0667 16.391 19.2208C16.6098 19.0021 20.3431 15.6042 20.416 15.2979C20.4261 15.2515 20.4248 15.2034 20.4121 15.1576C20.3994 15.1119 20.3757 15.0699 20.3431 15.0354C20.2556 14.9625 20.1389 14.9917 20.0368 15.0063C19.9056 15.0354 17.8639 16.3917 13.8827 19.075C13.2993 19.4688 12.7743 19.6729 12.3077 19.6583C11.7827 19.6438 10.791 19.3667 10.0473 19.1188C9.12852 18.8271 8.41393 18.6667 8.47227 18.1563C8.50143 17.8938 8.86602 17.6313 9.55143 17.3542C13.8098 15.5021 16.6389 14.2771 18.0535 13.6938C22.1077 12.0021 22.9389 11.7104 23.4931 11.7104C23.6098 11.7104 23.8868 11.7396 24.0618 11.8854C24.2077 12.0021 24.2514 12.1625 24.266 12.2792C24.2514 12.3667 24.2806 12.6292 24.266 12.8333Z" fill="#19282C"/>
</svg>
